<svg xmlns="http://www.w3.org/2000/svg" width="28" height="24" viewBox="0 0 56 48"><g><g><path fill="#363432" d="M51.088 41.472c1.048 0 1.872.824 1.872 1.872a1.854 1.854 0 0 1-1.872 1.872 1.854 1.854 0 0 1-1.872-1.872c0-1.048.824-1.872 1.872-1.872zm-46.176 0c1.048 0 1.872.824 1.872 1.872a1.854 1.854 0 0 1-1.872 1.872 1.854 1.854 0 0 1-1.872-1.872c0-1.048.824-1.872 1.872-1.872zm33.696-16.321v11.563l-9.36 5.655V30.357zm-21.216 0l9.36 5.206V42.37l-9.36-5.655zM28 2.784c1.048 0 1.872.824 1.872 1.872A1.854 1.854 0 0 1 28 6.528a1.854 1.854 0 0 1-1.872-1.872c0-1.048.824-1.872 1.872-1.872zm0-2.496c-2.398 0-4.368 1.97-4.368 4.368 0 1.962 1.328 3.63 3.12 4.173v7.527l-11.173 5.596c-.42.212-.683.641-.683 1.112v13.923l-6.63 3.568a4.384 4.384 0 0 0-3.354-1.58c-2.398 0-4.368 1.97-4.368 4.369 0 2.398 1.97 4.368 4.368 4.368 2.399 0 4.368-1.97 4.368-4.368 0-.17 0-.341-.02-.507l7.118-3.822 10.979 6.65c.394.238.892.238 1.287 0l10.978-6.65 7.118 3.822c-.02.166-.02.336-.02.507 0 2.398 1.97 4.368 4.368 4.368 2.399 0 4.368-1.97 4.368-4.368 0-2.399-1.97-4.368-4.368-4.368-1.338 0-2.55.619-3.354 1.58l-6.63-3.57V23.065c0-.47-.263-.9-.682-1.112l-7.47-3.744a1.256 1.256 0 0 0-1.13 2.243l5.323 2.652L28 28.193l-9.145-5.09 9.71-4.856c.42-.212.683-.64.683-1.111V8.829c1.791-.543 3.12-2.21 3.12-4.173 0-2.399-1.97-4.368-4.368-4.368z"/></g></g></svg>