<svg xmlns="http://www.w3.org/2000/svg" width="20.5" height="27.5" viewBox="0 0 41 55"><defs><clipPath id="mliwa"><path fill="#fff" d="M31.578 25.05c0-4.486-3.69-8.173-8.18-8.173h-5.883c-4.49 0-8.18 3.687-8.18 8.172l-.003 14.255h5.586l-.001-6.779a2.68 2.68 0 0 1 2.692-2.69 2.68 2.68 0 0 1 2.693 2.69v6.78h1.897v-2.096a2.68 2.68 0 0 1 2.692-2.69 2.68 2.68 0 0 1 2.693 2.69v2.095h3.994zm-27.635 0c0-7.476 6.086-13.558 13.568-13.558h5.884c7.482 0 13.569 6.082 13.569 13.558v14.254h.697a2.68 2.68 0 0 1 2.692 2.69c.101 1.496-1.095 2.691-2.591 2.691H27.584v1.578a2.678 2.678 0 0 1-2.693 2.69 2.68 2.68 0 0 1-2.692-2.69v-1.578h-1.897v7.36a2.674 2.674 0 0 1-2.689 2.69 2.68 2.68 0 0 1-2.692-2.69l-.002-7.36H3.246a2.68 2.68 0 0 1-2.693-2.69 2.68 2.68 0 0 1 2.693-2.69h.7zM20.504 8.603a2.68 2.68 0 0 1-2.693-2.69v-2.99A2.68 2.68 0 0 1 20.504.232a2.68 2.68 0 0 1 2.693 2.69v2.99a2.68 2.68 0 0 1-2.693 2.691zm15.66 6.48c-.697 0-1.395-.3-1.894-.799-1.098-1.098-1.098-2.792 0-3.788L36.367 8.4c1.099-1.098 2.794-1.098 3.791 0 1.1 1.098 1.1 2.791 0 3.788l-2.096 2.095c-.499.6-1.2.798-1.898.798zm-31.32 0c-.698 0-1.395-.3-1.894-.799L.854 12.189c-1.1-1.098-1.1-2.792 0-3.788 1.098-1.098 2.793-1.098 3.791 0l2.096 2.095c1.1 1.097 1.1 2.791 0 3.788-.502.6-1.2.798-1.897.798z"/></clipPath></defs><g><g><path fill="#363432" d="M31.578 25.05c0-4.486-3.69-8.173-8.18-8.173h-5.883c-4.49 0-8.18 3.687-8.18 8.172l-.003 14.255h5.586l-.001-6.779a2.68 2.68 0 0 1 2.692-2.69 2.68 2.68 0 0 1 2.693 2.69v6.78h1.897v-2.096a2.68 2.68 0 0 1 2.692-2.69 2.68 2.68 0 0 1 2.693 2.69v2.095h3.994zm-27.635 0c0-7.476 6.086-13.558 13.568-13.558h5.884c7.482 0 13.569 6.082 13.569 13.558v14.254h.697a2.68 2.68 0 0 1 2.692 2.69c.101 1.496-1.095 2.691-2.591 2.691H27.584v1.578a2.678 2.678 0 0 1-2.693 2.69 2.68 2.68 0 0 1-2.692-2.69v-1.578h-1.897v7.36a2.674 2.674 0 0 1-2.689 2.69 2.68 2.68 0 0 1-2.692-2.69l-.002-7.36H3.246a2.68 2.68 0 0 1-2.693-2.69 2.68 2.68 0 0 1 2.693-2.69h.7zM20.504 8.603a2.68 2.68 0 0 1-2.693-2.69v-2.99A2.68 2.68 0 0 1 20.504.232a2.68 2.68 0 0 1 2.693 2.69v2.99a2.68 2.68 0 0 1-2.693 2.691zm15.66 6.48c-.697 0-1.395-.3-1.894-.799-1.098-1.098-1.098-2.792 0-3.788L36.367 8.4c1.099-1.098 2.794-1.098 3.791 0 1.1 1.098 1.1 2.791 0 3.788l-2.096 2.095c-.499.6-1.2.798-1.898.798zm-31.32 0c-.698 0-1.395-.3-1.894-.799L.854 12.189c-1.1-1.098-1.1-2.792 0-3.788 1.098-1.098 2.793-1.098 3.791 0l2.096 2.095c1.1 1.097 1.1 2.791 0 3.788-.502.6-1.2.798-1.897.798z"/></g></g></svg>
