<svg xmlns="http://www.w3.org/2000/svg" width="32.5" height="30" viewBox="0 0 65 60"><defs><clipPath id="sylaa"><path fill="#fff" d="M24.862 35.707c0 4.33 3.549 7.887 7.869 7.887a2.146 2.146 0 0 0 2.177-2.151c0-.577-.23-1.13-.64-1.532a2.142 2.142 0 0 0-1.537-.62c-2.001 0-3.577-1.579-3.577-3.584a2.153 2.153 0 0 0-2.19-2.174 2.48 2.48 0 0 0-.202 0 2.147 2.147 0 0 0-1.9 2.174zm7.869-12.19c6.742 0 12.16 5.432 12.16 12.19 0 6.758-5.418 12.188-12.16 12.188-6.743 0-12.16-5.43-12.16-12.188 0-6.758 5.417-12.19 12.16-12.19zm0-4.3c-9.062 0-16.452 7.407-16.452 16.49 0 9.082 7.39 16.49 16.452 16.49 9.061 0 16.452-7.408 16.452-16.49 0-9.083-7.39-16.49-16.452-16.49zm12.16-14.34c.042 0 .338.058.536.2.148.11.21.239.224.247.008.014.014.031.022.045l1.61 6.677H18.178l1.61-6.677c.008-.014.014-.03.022-.045.014-.008.076-.137.224-.246a1.32 1.32 0 0 1 .536-.202zM20.57.574c-1.171 0-2.191.397-3.063 1.03-.846.616-1.578 1.52-1.855 2.756 0 .003-.022-.003-.022 0l-.023.09-1.833 7.595H7.628c-3.906 0-7.086 3.25-7.086 7.17v32.981c0 3.922 3.18 7.17 7.086 7.17h42.985a2.146 2.146 0 0 0 2.177-2.151 2.146 2.146 0 0 0-2.177-2.15H7.628c-1.576 0-2.794-1.23-2.794-2.868V19.216c0-1.638 1.218-2.868 2.794-2.868h50.206c1.576 0 2.794 1.23 2.794 2.868v32.982c0 1.638-1.218 2.867-2.794 2.867a2.143 2.143 0 0 0-1.537.62c-.41.403-.64.955-.64 1.531 0 .577.23 1.129.64 1.533.408.403.961.627 1.537.618 3.906 0 7.086-3.248 7.086-7.17V19.217c0-3.921-3.18-7.17-7.086-7.17h-6.147L49.854 4.45c-.006-.03-.014-.058-.023-.09h-.022c-.277-1.234-1.009-2.139-1.855-2.755-.872-.633-1.892-1.03-3.063-1.03z"/></clipPath></defs><g><g><path fill="#9a9998" d="M24.862 35.707c0 4.33 3.549 7.887 7.869 7.887a2.146 2.146 0 0 0 2.177-2.151c0-.577-.23-1.13-.64-1.532a2.142 2.142 0 0 0-1.537-.62c-2.001 0-3.577-1.579-3.577-3.584a2.153 2.153 0 0 0-2.19-2.174 2.48 2.48 0 0 0-.202 0 2.147 2.147 0 0 0-1.9 2.174zm7.869-12.19c6.742 0 12.16 5.432 12.16 12.19 0 6.758-5.418 12.188-12.16 12.188-6.743 0-12.16-5.43-12.16-12.188 0-6.758 5.417-12.19 12.16-12.19zm0-4.3c-9.062 0-16.452 7.407-16.452 16.49 0 9.082 7.39 16.49 16.452 16.49 9.061 0 16.452-7.408 16.452-16.49 0-9.083-7.39-16.49-16.452-16.49zm12.16-14.34c.042 0 .338.058.536.2.148.11.21.239.224.247.008.014.014.031.022.045l1.61 6.677H18.178l1.61-6.677c.008-.014.014-.03.022-.045.014-.008.076-.137.224-.246a1.32 1.32 0 0 1 .536-.202zM20.57.574c-1.171 0-2.191.397-3.063 1.03-.846.616-1.578 1.52-1.855 2.756 0 .003-.022-.003-.022 0l-.023.09-1.833 7.595H7.628c-3.906 0-7.086 3.25-7.086 7.17v32.981c0 3.922 3.18 7.17 7.086 7.17h42.985a2.146 2.146 0 0 0 2.177-2.151 2.146 2.146 0 0 0-2.177-2.15H7.628c-1.576 0-2.794-1.23-2.794-2.868V19.216c0-1.638 1.218-2.868 2.794-2.868h50.206c1.576 0 2.794 1.23 2.794 2.868v32.982c0 1.638-1.218 2.867-2.794 2.867a2.143 2.143 0 0 0-1.537.62c-.41.403-.64.955-.64 1.531 0 .577.23 1.129.64 1.533.408.403.961.627 1.537.618 3.906 0 7.086-3.248 7.086-7.17V19.217c0-3.921-3.18-7.17-7.086-7.17h-6.147L49.854 4.45c-.006-.03-.014-.058-.023-.09h-.022c-.277-1.234-1.009-2.139-1.855-2.755-.872-.633-1.892-1.03-3.063-1.03z"/></g></g></svg>
