<?xml version="1.0" encoding="UTF-8"?>
<!DOCTYPE svg PUBLIC "-//W3C//DTD SVG 1.1//EN" "http://www.w3.org/Graphics/SVG/1.1/DTD/svg11.dtd">
<!-- Creator: CorelDRAW 2018 (64-Bit) -->
<svg xmlns="http://www.w3.org/2000/svg" xml:space="preserve" width="998px" height="133px" version="1.1" style="shape-rendering:geometricPrecision; text-rendering:geometricPrecision; image-rendering:optimizeQuality; fill-rule:evenodd; clip-rule:evenodd"
viewBox="0 0 998 133.07"
 xmlns:xlink="http://www.w3.org/1999/xlink">
 <defs>
  <style type="text/css">
   <![CDATA[
    .str0 {stroke:#2B2A29;stroke-width:1.33;stroke-miterlimit:22.9256}
    .str1 {stroke:#FDC707;stroke-width:1.33;stroke-miterlimit:22.9256}
    .fil0 {fill:none}
    .fil2 {fill:none;fill-rule:nonzero}
    .fil3 {fill:#FDC707}
    .fil1 {fill:#2B2A29;fill-rule:nonzero}
   ]]>
  </style>
 </defs>
 <g id="Слой_x0020_1">
  <metadata id="CorelCorpID_0Corel-Layer"/>
  <rect class="fil0" width="998" height="133.07"/>
  <g id="_2027769330528">
   <path class="fil1 str0" d="M779.76 11.12l61.09 0c1.89,0 3.73,0.16 5.55,0.48 1.84,0.29 3.52,0.82 5.09,1.54 1.65,0.64 3.23,1.5 4.67,2.59 1.46,1.09 2.77,2.48 3.92,4.13 1.04,1.47 1.97,3.15 2.8,5.07 0.85,1.95 1.52,4.11 2.05,6.51 0.29,1.65 0.53,3.46 0.69,5.38 0.16,1.92 0.24,3.98 0.24,6.16l0 48.14c0,2.4 -0.1,4.63 -0.32,6.72 -0.21,2.08 -0.53,4.05 -0.93,5.94 -0.43,2.19 -1.04,4.24 -1.87,6.16 -0.85,1.92 -1.78,3.63 -2.82,5.07 -1.76,2.29 -3.79,4.13 -6.08,5.49 -1.58,0.83 -3.26,1.44 -5.02,1.87 -1.76,0.4 -3.7,0.61 -5.78,0.61l-65.63 0c-1.76,0 -3.41,-0.18 -4.91,-0.53 -1.52,-0.37 -2.96,-0.88 -4.29,-1.49 -1.68,-0.83 -3.2,-1.87 -4.53,-3.12 -1.36,-1.26 -2.56,-2.67 -3.6,-4.22 -0.83,-1.36 -1.6,-2.8 -2.27,-4.29 -0.67,-1.52 -1.23,-3.12 -1.65,-4.77 -0.4,-1.58 -0.72,-3.12 -0.94,-4.7 -0.21,-1.57 -0.29,-3.06 -0.29,-4.53l0 -55.31c0,-2.29 0.11,-4.42 0.37,-6.4 0.27,-2 0.62,-3.81 1.02,-5.46 0.53,-1.9 1.17,-3.6 1.97,-5.18 0.77,-1.54 1.63,-2.9 2.56,-4.05 1.04,-1.25 2.19,-2.35 3.44,-3.28 1.25,-0.93 2.56,-1.73 3.92,-2.35 1.76,-0.72 3.63,-1.28 5.63,-1.65 1.97,-0.35 3.94,-0.53 5.92,-0.53zm21.09 18.58c-1.04,0 -1.95,0.19 -2.72,0.56 -0.8,0.35 -1.49,0.8 -2.11,1.31 -0.74,0.75 -1.28,1.6 -1.65,2.59 -0.37,0.98 -0.53,1.94 -0.53,2.9l0 62.03c0,0.72 0.18,1.41 0.61,2.11 0.43,0.66 0.88,1.28 1.41,1.78 0.62,0.54 1.31,0.96 2.03,1.34 0.72,0.37 1.47,0.56 2.19,0.56l20.93 0c0.72,0 1.44,-0.22 2.11,-0.64 0.69,-0.4 1.28,-0.94 1.81,-1.55 0.51,-0.53 0.93,-1.15 1.23,-1.89 0.32,-0.72 0.48,-1.44 0.48,-2.19l0 -62.96c0,-0.72 -0.16,-1.47 -0.48,-2.19 -0.3,-0.72 -0.78,-1.36 -1.39,-1.89 -0.53,-0.51 -1.15,-0.96 -1.89,-1.31 -0.72,-0.37 -1.39,-0.56 -2.03,-0.56l-20 0z"/>
   <path class="fil2 str0" d="M919.6 29.86l0 26.4 24.53 0c0.83,0 1.46,-0.13 1.94,-0.37 0.48,-0.27 0.86,-0.67 1.18,-1.17 0.32,-0.43 0.53,-0.94 0.61,-1.58 0.11,-0.61 0.16,-1.41 0.16,-2.34l0 -17.02c0,-0.74 -0.11,-1.36 -0.29,-1.89 -0.22,-0.51 -0.54,-0.93 -0.96,-1.25 -0.4,-0.3 -0.91,-0.51 -1.47,-0.62 -0.58,-0.1 -1.12,-0.16 -1.65,-0.16l-24.05 0z"/>
   <path class="fil1 str0" d="M880.05 11.44l84.24 0c4.05,0 7.6,0.5 10.61,1.54 2.91,1.04 5.36,2.67 7.33,4.86 0.96,1.04 1.76,2.26 2.43,3.68 0.69,1.38 1.23,2.93 1.65,4.58 0.62,2.62 0.94,5.58 0.94,8.91l0 22.99c0,1.14 -0.03,2.26 -0.08,3.36 -0.06,1.09 -0.19,2.21 -0.4,3.36 -0.19,1.04 -0.54,2.07 -1.01,3.12 -0.46,1.04 -1.07,1.97 -1.79,2.79 -0.54,0.65 -1.18,1.21 -1.95,1.74 -0.8,0.51 -1.71,0.93 -2.75,1.25 -1.04,0.4 -2.18,0.7 -3.44,0.85 -1.25,0.17 -2.69,0.24 -4.37,0.24l22.35 48.43 -43.44 0 -18.59 -48.26 -12.5 0 0 48.26 -39.23 0 0 -111.7zm39.55 18.42l0 26.4 24.53 0c0.83,0 1.46,-0.13 1.94,-0.37 0.48,-0.27 0.86,-0.67 1.18,-1.17 0.32,-0.43 0.53,-0.94 0.61,-1.58 0.11,-0.61 0.16,-1.41 0.16,-2.34l0 -17.02c0,-0.74 -0.11,-1.36 -0.29,-1.89 -0.22,-0.51 -0.54,-0.93 -0.96,-1.25 -0.4,-0.3 -0.91,-0.51 -1.47,-0.62 -0.58,-0.1 -1.12,-0.16 -1.65,-0.16l-24.05 0z"/>
   <polygon class="fil1 str0" points="630.69,11.12 681.78,11.12 724.29,102.69 724.29,11.12 741.78,11.12 741.78,122.98 690.69,122.98 647.57,29.7 647.57,122.98 630.69,122.98 "/>
   <polygon class="fil1 str0" points="421.07,122.6 383.42,10.41 424.99,10.41 454.99,98.84 486.22,10.41 504.99,10.41 464.99,122.6 "/>
   <path class="fil2 str0" d="M303.1 29.15l0 26.41 24.53 0c0.83,0 1.47,-0.14 1.95,-0.38 0.48,-0.26 0.85,-0.66 1.17,-1.17 0.32,-0.43 0.53,-0.93 0.62,-1.57 0.1,-0.62 0.15,-1.42 0.15,-2.35l0 -17.01c0,-0.75 -0.1,-1.36 -0.29,-1.9 -0.21,-0.5 -0.53,-0.93 -0.96,-1.25 -0.4,-0.29 -0.91,-0.51 -1.47,-0.61 -0.58,-0.11 -1.12,-0.17 -1.65,-0.17l-24.05 0z"/>
   <path class="fil1 str0" d="M263.55 10.73l84.24 0c4.05,0 7.6,0.51 10.62,1.55 2.9,1.03 5.35,2.66 7.33,4.85 0.96,1.04 1.76,2.27 2.42,3.68 0.7,1.39 1.23,2.93 1.66,4.59 0.61,2.61 0.93,5.57 0.93,8.9l0 22.99c0,1.15 -0.02,2.27 -0.08,3.36 -0.05,1.09 -0.19,2.21 -0.4,3.36 -0.19,1.04 -0.53,2.08 -1.01,3.12 -0.46,1.04 -1.07,1.97 -1.79,2.8 -0.53,0.64 -1.17,1.2 -1.95,1.73 -0.79,0.51 -1.7,0.94 -2.74,1.26 -1.04,0.4 -2.19,0.69 -3.44,0.85 -1.26,0.16 -2.7,0.24 -4.38,0.24l22.35 48.43 -43.44 0 -18.58 -48.27 -12.51 0 0 48.27 -39.23 0 0 -111.71zm39.55 18.42l0 26.41 24.53 0c0.83,0 1.47,-0.14 1.95,-0.38 0.48,-0.26 0.85,-0.66 1.17,-1.17 0.32,-0.43 0.53,-0.93 0.62,-1.57 0.1,-0.62 0.15,-1.42 0.15,-2.35l0 -17.01c0,-0.75 -0.1,-1.36 -0.29,-1.9 -0.21,-0.5 -0.53,-0.93 -0.96,-1.25 -0.4,-0.29 -0.91,-0.51 -1.47,-0.61 -0.58,-0.11 -1.12,-0.17 -1.65,-0.17l-24.05 0z"/>
   <polygon class="fil2 str0" points="173.74,36.04 158.11,74.17 188.89,74.17 "/>
   <path class="fil1 str0" d="M206.22 10.86l42.5 111.74 -41.86 0 -11.57 -29.68 -45.47 0 -13.6 29.68 -18.91 0 49.71 -111.74 39.2 0zm-32.48 25.18l-15.63 38.13 30.78 0 -15.15 -38.13z"/>
   <path class="fil2 str0" d="M43.42 73.85l0 30.32 25.31 0c0.64,0 1.17,-0.19 1.65,-0.56 0.45,-0.37 0.91,-0.8 1.31,-1.33 0.42,-0.62 0.74,-1.28 0.96,-1.95 0.18,-0.67 0.29,-1.33 0.29,-1.95l0 -20.32c0,-0.5 -0.16,-1.04 -0.45,-1.57 -0.32,-0.51 -0.7,-0.93 -1.1,-1.23 -0.53,-0.42 -1.04,-0.77 -1.57,-1.04 -0.51,-0.24 -1.04,-0.37 -1.57,-0.37l-24.83 0z"/>
   <path class="fil2 str0" d="M43.42 29.15l0 26.41 24.83 0c0.53,0 1.09,-0.16 1.65,-0.46 0.56,-0.32 1.07,-0.69 1.49,-1.09 0.4,-0.53 0.78,-1.07 1.1,-1.65 0.29,-0.56 0.45,-1.12 0.45,-1.63l0 -17.36c0,-0.51 -0.16,-1.04 -0.45,-1.55 -0.32,-0.53 -0.7,-0.93 -1.1,-1.25 -0.53,-0.43 -1.04,-0.77 -1.57,-1.01 -0.51,-0.27 -1.04,-0.41 -1.57,-0.41l-24.83 0z"/>
   <path class="fil1 str0" d="M88.25 10.73c1.57,0 3.12,0.08 4.61,0.21 1.52,0.16 2.91,0.46 4.16,0.88 1.65,0.4 3.17,0.96 4.53,1.63 1.34,0.69 2.54,1.49 3.58,2.43 1.14,0.93 2.1,1.94 2.9,3.04 0.78,1.09 1.42,2.21 1.95,3.36 0.61,1.25 1.07,2.53 1.33,3.84 0.27,1.3 0.38,2.56 0.38,3.81l0 20.48c0,1.47 -0.16,2.75 -0.54,3.89 -0.37,1.15 -0.85,2.19 -1.49,3.15 -0.61,0.93 -1.36,1.73 -2.19,2.4 -0.82,0.69 -1.76,1.28 -2.8,1.81 -0.74,0.4 -1.57,0.75 -2.5,1.02 -0.94,0.26 -1.87,0.48 -2.8,0.69 -1.58,0.32 -3.12,0.53 -4.62,0.64 -1.52,0.1 -2.9,0.16 -4.16,0.16 1.58,0.19 3.1,0.45 4.54,0.77 1.46,0.32 2.88,0.67 4.24,1.1 2.18,0.5 4.05,1.25 5.6,2.18 0.85,0.32 1.6,0.72 2.26,1.26 0.7,0.5 1.28,1.04 1.82,1.54 0.93,0.96 1.62,2.03 2.1,3.2 0.46,1.2 0.7,2.48 0.7,3.84l0 25.31c0,1.89 -0.19,3.6 -0.54,5.17 -0.37,1.55 -0.9,2.96 -1.65,4.22 -0.72,1.14 -1.55,2.21 -2.51,3.19 -0.93,0.99 -1.97,1.85 -3.12,2.59 -1.04,0.62 -2.1,1.18 -3.2,1.63 -1.09,0.48 -2.26,0.85 -3.52,1.17 -1.44,0.43 -2.93,0.7 -4.45,0.86 -1.49,0.16 -2.93,0.24 -4.29,0.24l-84.38 0 0 -111.71 84.06 0zm-44.83 63.12l0 30.32 25.31 0c0.64,0 1.17,-0.19 1.65,-0.56 0.45,-0.37 0.91,-0.8 1.31,-1.33 0.42,-0.62 0.74,-1.28 0.96,-1.95 0.18,-0.67 0.29,-1.33 0.29,-1.95l0 -20.32c0,-0.5 -0.16,-1.04 -0.45,-1.57 -0.32,-0.51 -0.7,-0.93 -1.1,-1.23 -0.53,-0.42 -1.04,-0.77 -1.57,-1.04 -0.51,-0.24 -1.04,-0.37 -1.57,-0.37l-24.83 0zm0 -44.7l0 26.41 24.83 0c0.53,0 1.09,-0.16 1.65,-0.46 0.56,-0.32 1.07,-0.69 1.49,-1.09 0.4,-0.53 0.78,-1.07 1.1,-1.65 0.29,-0.56 0.45,-1.12 0.45,-1.63l0 -17.36c0,-0.51 -0.16,-1.04 -0.45,-1.55 -0.32,-0.53 -0.7,-0.93 -1.1,-1.25 -0.53,-0.43 -1.04,-0.77 -1.57,-1.01 -0.51,-0.27 -1.04,-0.41 -1.57,-0.41l-24.83 0z"/>
   <polygon class="fil3 str1" points="487.13,1.87 455.04,93.45 424.29,1.87 "/>
   <g id="_1706983259808">
    <polygon class="fil1 str0" points="578.09,10.48 615.53,122.73 573.96,122.66 544.12,34.17 512.73,122.54 493.96,122.51 534.17,10.4 "/>
    <polygon class="fil3 str1" points="511.81,131.09 544.07,39.56 574.64,131.2 "/>
   </g>
  </g>
 </g>
</svg>
