<svg xmlns="http://www.w3.org/2000/svg" width="115" height="117" viewBox="0 0 115 117"><g><g><path fill="#e2e2e2" d="M23.358 88.46h25.388l-8.173 25.183H15.185zM49.924 6.633a4.762 4.762 0 0 1 4.554-3.288H72.82c.84 0 1.6.385 2.096 1.057.496.67.632 1.51.372 2.304L70.531 21.35H45.143zm28.56 45.678H64.032l7.226-22.258zM59.997 73.563l-1.432-4.407 4.38-13.489h16.627l5.812 17.896zm-3.207 1.062l12.665 39.018H44.124zm-2.407-7.415l.631 1.946-5.18 15.95H24.446l5.812-17.896zm2.407-3.53l-2.604-8.013h5.202zm5.755-17.722l-2.063 6.353h-7.384l-1.15-3.534h-3.551l4.892 15.077H31.346l5.811-17.896zM45.646 40.3l3.219-1.029-3.123-9.613h22.09l-4.199 12.94H38.245l4.076-12.543zm23.28-13.992H43.538l.519-1.6h25.387zM93.37 98.169l5.022 15.474H73.006L67.983 98.17zm21.622 15.474h-13.044l-9.198-28.325-3.22 1.03 2.751 8.472H66.895l-5.812-17.896h25.388l2.012 6.196 3.219-1.029-18.67-57.5L78.507 7.74a5.827 5.827 0 0 0-.857-5.307 5.932 5.932 0 0 0-4.83-2.438H54.476c-3.557 0-6.68 2.259-7.773 5.62L11.627 113.643H-.007V117h115.003z"/></g></g></svg>