<svg xmlns="http://www.w3.org/2000/svg" width="126" height="100" viewBox="0 0 126 100"><g><g><path fill="#e2e2e2" d="M15.6 51.16a55.191 55.191 0 0 1 9.19-5.036 62.587 62.587 0 0 1 49.752 0 55.736 55.736 0 0 1 9.264 5.084c.336.235.57.588.645.994.074.401-.016.818-.245 1.155a1.537 1.537 0 0 1-2.142.4 52.297 52.297 0 0 0-8.748-4.8 59.504 59.504 0 0 0-47.308 0 52.829 52.829 0 0 0-8.678 4.753 1.536 1.536 0 0 1-2.126-.417 1.544 1.544 0 0 1 .395-2.133zm4.995 19.234c-.01-6.207-5.018-11.237-11.203-11.243H7.277c-2.317 0-4.198 1.888-4.203 4.213V96.91H96.25V63.364c-.005-2.325-1.886-4.213-4.203-4.213h-2.115c-6.18.006-11.193 5.036-11.199 11.243v7.35c-.005 2.513-2.035 4.55-4.539 4.55H25.129a4.541 4.541 0 0 1-4.533-4.55v-7.35zm8.514 1.449c-3 .005-5.434 2.443-5.44 5.452v.45c.006.807.655 1.459 1.46 1.459h22.993v-1.909a5.45 5.45 0 0 0-5.435-5.452zm27.532 0a5.454 5.454 0 0 0-5.439 5.452v1.914h22.993a1.468 1.468 0 0 0 1.46-1.465v-.449a5.454 5.454 0 0 0-5.44-5.452zM9.391 56.062c7.885.01 14.273 6.42 14.278 14.333v.331a8.475 8.475 0 0 1 5.44-1.973h13.58a8.493 8.493 0 0 1 6.973 3.657 8.51 8.51 0 0 1 6.979-3.657h13.58c1.986 0 3.91.7 5.433 1.973v-.331c.011-7.913 6.399-14.323 14.278-14.333h2.115c4.017.005 7.277 3.271 7.283 7.302v35.091c0 .856-.693 1.545-1.54 1.545H1.534C.687 100 0 99.31 0 98.455v-35.09c0-4.032 3.26-7.298 7.277-7.303zM6.456 30.93h32.556a3.145 3.145 0 0 0 3.138-3.149V6.238a3.145 3.145 0 0 0-3.138-3.148H6.456c-1.731 0-3.132 1.411-3.138 3.148v21.544c.006 1.738 1.407 3.149 3.138 3.149zm0 3.09c-3.43-.006-6.212-2.796-6.212-6.239V6.238C.245 2.796 3.027.005 6.457 0h32.556c3.43.005 6.212 2.796 6.217 6.238v21.544c-.005 3.443-2.786 6.233-6.217 6.239zm2.589-6.887a1.54 1.54 0 0 1-1.54-1.545V8.423c0-.85.687-1.545 1.54-1.54h27.382c.41-.005.8.161 1.087.45.288.289.453.684.453 1.09V25.59a1.54 1.54 0 0 1-1.54 1.545h-3.073c-.848 0-1.535-.69-1.535-1.545 0-.85.687-1.54 1.535-1.54v-.005h1.534V9.97H10.585v14.08h11.027a1.542 1.542 0 0 1 0 3.085H9.045zm19.898-2.132a1.3 1.3 0 0 1 .085.289c.022.101.032.197.032.3 0 .41-.165.801-.453 1.095a1.53 1.53 0 0 1-2.503-.503 1.494 1.494 0 0 1 0-1.181c.031-.096.08-.182.138-.267.053-.086.117-.166.192-.236a1.521 1.521 0 0 1 1.236-.443 1.53 1.53 0 0 1 1.13.679c.052.085.1.17.143.267zm71.1 19.968a1.983 1.983 0 0 0-1.976-1.984 1.98 1.98 0 0 0-1.822 1.225 1.99 1.99 0 0 0 .426 2.16 1.964 1.964 0 0 0 2.153.427 1.973 1.973 0 0 0 1.22-1.828zm-3.51-7.014c0-.412.16-.807.447-1.096a1.539 1.539 0 0 1 2.627 1.096v2.186a5.064 5.064 0 0 1 3.452 5.608 5.057 5.057 0 0 1-4.992 4.293c-2.488 0-4.603-1.823-4.992-4.293a5.068 5.068 0 0 1 3.458-5.608v-2.186zm25.833-6.624l-4.544-14.445a3.425 3.425 0 0 0-3.281-2.416h-10.698a3.425 3.425 0 0 0-3.281 2.416l-4.55 14.445zm-11.581 3.09h-3.186V96.91h3.186zm14.921-.63a1.53 1.53 0 0 1-1.241.63h-10.601v64.033c0 .856-.693 1.545-1.54 1.545h-6.265a1.54 1.54 0 0 1-1.54-1.545V34.422H93.912c-.49 0-.948-.235-1.24-.63a1.55 1.55 0 0 1-.225-1.38l5.179-16.454a6.504 6.504 0 0 1 6.217-4.576h10.692a6.511 6.511 0 0 1 6.222 4.576l5.178 16.454c.15.47.064.978-.229 1.38z"/></g></g></svg>