<svg xmlns="http://www.w3.org/2000/svg" width="351" height="41" viewBox="0 0 351 41"><g><g><path d="M275.08.29h21.668c.672 0 1.325.056 1.967.17a6.941 6.941 0 0 1 1.808.55c.585.228 1.143.531 1.654.92.52.389.984.882 1.39 1.47.37.522.7 1.12.994 1.802.303.692.539 1.46.728 2.314.104.588.19 1.233.246 1.916.057.683.085 1.413.085 2.19v17.12c0 .853-.038 1.65-.114 2.39-.075.74-.189 1.442-.33 2.115a10.716 10.716 0 0 1-.663 2.19 10.05 10.05 0 0 1-1.002 1.802c-.625.816-1.343 1.47-2.157 1.954a7.682 7.682 0 0 1-1.778.664 9.25 9.25 0 0 1-2.052.218h-23.277a7.677 7.677 0 0 1-1.74-.19 8.445 8.445 0 0 1-1.523-.53 6.58 6.58 0 0 1-1.608-1.11 8.472 8.472 0 0 1-1.277-1.498 13.842 13.842 0 0 1-.803-1.527 11.24 11.24 0 0 1-.587-1.698 14.83 14.83 0 0 1-.331-1.67c-.076-.559-.104-1.09-.104-1.612V10.57a17.026 17.026 0 0 1 .492-4.22c.19-.674.416-1.28.7-1.84.274-.55.577-1.034.908-1.442a7.508 7.508 0 0 1 2.61-2.001 10.15 10.15 0 0 1 1.996-.588c.7-.123 1.4-.19 2.1-.19zm65.45.113c1.437 0 2.695.18 3.764.55 1.031.37 1.901.949 2.601 1.726.34.37.624.807.86 1.31.247.492.436 1.042.587 1.63.218.93.331 1.983.331 3.168v8.176c0 .407-.01.805-.028 1.195a8.98 8.98 0 0 1-.142 1.194c-.066.37-.189.74-.36 1.11-.16.37-.378.702-.633.996a3.373 3.373 0 0 1-.69.617c-.284.18-.606.331-.975.445-.369.143-.775.247-1.22.303-.444.057-.955.086-1.55.086L351 40.132h-15.407L329 22.966h-4.435v17.166H310.65V.403zm-15.852 15.943h8.701c.294 0 .52-.048.69-.133.17-.094.304-.237.417-.417.114-.152.189-.332.218-.56.037-.218.056-.502.056-.834V8.35c0-.266-.038-.484-.104-.674a1.063 1.063 0 0 0-.34-.445 1.286 1.286 0 0 0-.52-.219 3.264 3.264 0 0 0-.587-.057h-8.531zM222.208.29h18.122l15.076 32.569V.289h6.205v39.786H243.49L228.195 6.9v33.175h-5.987zM147.86 39.938L134.505.038h14.745l10.64 31.45L170.968.037h6.658l-14.187 39.9zM121.87.152c1.438 0 2.695.18 3.765.55 1.03.37 1.9.948 2.6 1.726.34.37.624.806.86 1.309.247.493.436 1.043.587 1.631.218.93.331 1.982.331 3.168v8.175c0 .408-.009.806-.028 1.195-.02.389-.066.787-.142 1.195-.066.37-.189.74-.36 1.11-.16.37-.378.702-.633.995a3.385 3.385 0 0 1-.69.617c-.284.18-.606.332-.974.446a5.19 5.19 0 0 1-1.221.303c-.444.057-.955.085-1.551.085l7.926 17.224H116.93l-6.591-17.167h-4.436v17.167H91.99V.152zM71.655.199l15.076 39.739H71.882l-4.104-10.556H51.65l-4.824 10.556h-6.705L57.752.199zM29.813.152c.557 0 1.106.028 1.636.076.539.056 1.03.16 1.475.313a7.843 7.843 0 0 1 1.608.578c.473.247.899.531 1.268.863.406.332.747.693 1.03 1.082.275.388.502.787.69 1.195.219.445.38.9.474 1.365.094.465.133.91.133 1.356v7.284c0 .522-.057.977-.19 1.385a4.475 4.475 0 0 1-.53 1.119 3.718 3.718 0 0 1-.775.853 5.254 5.254 0 0 1-.993.646 4.447 4.447 0 0 1-.89.36c-.33.095-.661.17-.992.246-.558.114-1.107.19-1.636.228a21.44 21.44 0 0 1-1.476.057c.558.066 1.098.161 1.608.275.52.114 1.022.237 1.504.389.775.18 1.437.445 1.986.777.303.115.567.256.804.447.246.18.454.37.643.55.33.34.577.72.747 1.137.16.427.246.883.246 1.366v9a8.53 8.53 0 0 1-.19 1.84 5.383 5.383 0 0 1-.585 1.499 6.818 6.818 0 0 1-.89 1.138c-.33.35-.7.655-1.106.92-.37.218-.747.417-1.135.579-.388.17-.804.303-1.248.417a8.729 8.729 0 0 1-1.58.303c-.53.057-1.04.086-1.523.086H0V.152h29.813zM203.55.062l13.282 39.925-14.745-.028L191.505 8.49 180.37 39.92l-6.658-.013L187.973.033zM282.56 6.9c-.369 0-.69.066-.965.199-.283.123-.53.284-.747.465a2.556 2.556 0 0 0-.587.92c-.132.35-.189.691-.189 1.033v22.06c0 .256.067.503.218.75.152.237.312.455.502.635.217.19.463.341.718.475.255.132.52.198.775.198h7.425c.255 0 .51-.075.747-.227.246-.142.455-.332.644-.55.18-.19.331-.408.435-.674.113-.256.17-.512.17-.777V9.015c0-.256-.057-.522-.17-.778a1.792 1.792 0 0 0-.492-.673 2.489 2.489 0 0 0-.672-.465 1.56 1.56 0 0 0-.718-.2zm-176.544-.195v9.39h8.701c.294 0 .52-.048.69-.133a1.17 1.17 0 0 0 .417-.418c.114-.152.189-.331.218-.559.037-.218.056-.502.056-.834V8.1c0-.266-.037-.484-.104-.674a1.061 1.061 0 0 0-.34-.446 1.285 1.285 0 0 0-.52-.218 3.25 3.25 0 0 0-.587-.057zM60.135 9.152l-5.542 13.562h10.915zM13.913 33.384h8.976a.917.917 0 0 0 .586-.199c.161-.133.322-.284.464-.474.152-.218.265-.455.34-.693.067-.237.105-.473.105-.692V24.1c0-.18-.057-.37-.161-.56a1.596 1.596 0 0 0-.388-.435 3.16 3.16 0 0 0-.558-.37 1.302 1.302 0 0 0-.558-.133h-8.806zm0-26.679v9.39h8.806c.19 0 .388-.057.586-.162.2-.114.379-.246.53-.389.142-.189.274-.379.388-.588.104-.199.16-.398.16-.578V8.204c0-.18-.056-.37-.16-.55a1.646 1.646 0 0 0-.388-.446 2.684 2.684 0 0 0-.558-.36 1.19 1.19 0 0 0-.558-.143z"/></g></g></svg>