<svg version="1.1" xmlns="http://www.w3.org/2000/svg" xmlns:xlink="http://www.w3.org/1999/xlink">
<defs>
<symbol id="icon-prev" viewBox="0 0 22 32">
<title>prev</title>
<path d="M0.009 16.631l0.652-0.631-0.652-0.631 15.855-15.383 5.946 5.769-10.56 10.246 10.56 10.244-5.946 5.769z"></path>
</symbol>
<symbol id="icon-next2" viewBox="0 0 21 32">
<title>next2</title>
<path d="M5.884 31.279l-5.668-5.499 10.067-9.767-10.067-9.766 5.668-5.499 15.115 14.663-0.621 0.602 0.621 0.603z"></path>
</symbol>
<symbol id="icon-icon-7" viewBox="0 0 27 32">
<title>icon-7</title>
<path d="M26.039 17.48c0.656 0 1.191 0.533 1.191 1.183v8.712c0 2.369-1.965 4.264-4.288 4.264h-18.459c-2.383 0-4.288-1.955-4.288-4.264v-8.712c0-0.658 0.533-1.191 1.191-1.191s1.191 0.533 1.191 1.191v0 8.712c0 1.066 0.894 1.895 1.906 1.895h18.459c1.072 0 1.906-0.889 1.906-1.895v-8.712c0-0.652 0.535-1.185 1.191-1.185zM6.805 14.934c-0.475-0.473-0.475-1.185 0-1.658 0.477-0.473 1.192-0.473 1.667 0l4.108 4.086v-15.82c0-0.658 0.533-1.192 1.191-1.192s1.191 0.533 1.191 1.192v0 15.82l4.052-4.146c0.476-0.473 1.191-0.473 1.667 0s0.475 1.185 0 1.659l-6.133 6.1c-0.12 0.118-0.238 0.176-0.358 0.236-0.12 0.059-0.24 0.119-0.418 0.119-0.12 0-0.298 0-0.418-0.059-0.179-0.059-0.297-0.118-0.417-0.236z"></path>
</symbol>
<symbol id="icon-icon-6" viewBox="0 0 33 32">
<title>icon-6</title>
<path d="M28.934-0.002c2.042 0.002 3.696 1.661 3.697 3.708v1.949c0 0.456-0.364 0.826-0.819 0.834h-2.663c-0.461 0-0.834-0.373-0.834-0.834s0.373-0.834 0.834-0.834h1.818v-1.114c0-0 0-0 0-0 0-1.118-0.9-2.026-2.015-2.039h-0.001c-1.124 0.003-2.034 0.915-2.035 2.039v4.525c0 0.46-0.373 0.832-0.832 0.832s-0.832-0.373-0.832-0.832v0-4.521c0-0.723 0.211-1.429 0.609-2.032l-18.289 0.043c-1.052 0.005-1.904 0.859-1.904 1.912v19.835h14.136c0.461 0 0.834 0.373 0.834 0.834s-0.373 0.834-0.834 0.834v0h-18.13v1.242c0 0.001 0 0.002 0 0.003 0 1.052 0.852 1.906 1.904 1.908h16.226c0.461 0 0.835 0.374 0.835 0.835s-0.374 0.835-0.835 0.835v0h-16.225c-1.97-0.003-3.567-1.605-3.569-3.58v-2.077c0-0.46 0.374-0.834 0.832-0.834h3.163v-19.835c0-1.971 1.587-3.572 3.553-3.585l21.379-0.049zM20.484 17.588c-0.156 0.169-0.251 0.395-0.251 0.644 0 0.080 0.010 0.158 0.029 0.233l-0.001-0.007c0.080 0.33 0.312 0.602 0.626 0.728 0.806 0.348 1.401 1.051 1.595 1.907l0.003 0.018c0.072 0.314 0.285 0.578 0.576 0.715 0.154 0.078 0.337 0.123 0.529 0.123s0.375-0.046 0.536-0.126l-0.007 0.003c0.795-0.385 1.719-0.385 2.514 0 0.154 0.078 0.337 0.123 0.529 0.123s0.375-0.046 0.536-0.126l-0.007 0.003c0.291-0.136 0.504-0.401 0.576-0.715 0.197-0.874 0.792-1.577 1.58-1.918l0.018-0.007c0.314-0.126 0.546-0.397 0.625-0.727 0.015-0.064 0.024-0.137 0.024-0.212 0-0.248-0.095-0.475-0.25-0.645l0.001 0.001c-0.412-0.464-0.664-1.078-0.664-1.75 0-0.24 0.032-0.473 0.092-0.694l-0.004 0.018c0.079-0.294 0.013-0.61-0.179-0.847-0.211-0.266-0.535-0.435-0.898-0.435-0.017 0-0.034 0-0.050 0.001l0.002-0c-0.020 0.001-0.043 0.001-0.066 0.001-0.891 0-1.687-0.408-2.211-1.047l-0.004-0.005c-0.219-0.261-0.546-0.426-0.91-0.426s-0.691 0.165-0.909 0.424l-0.002 0.002c-0.529 0.646-1.326 1.055-2.219 1.055-0.021 0-0.043-0-0.064-0.001l0.003 0c-0.015-0.001-0.032-0.001-0.049-0.001-0.361 0-0.682 0.167-0.891 0.429l-0.002 0.002c-0.186 0.234-0.252 0.541-0.177 0.83 0.056 0.203 0.088 0.435 0.088 0.676 0 0.673-0.252 1.288-0.666 1.754l0.002-0.003zM20.227 20.705c-0.795-0.339-1.385-1.026-1.584-1.864l-0.004-0.018c-0.042-0.176-0.066-0.378-0.066-0.585 0-0.674 0.254-1.289 0.672-1.753l-0.002 0.002c0.217-0.243 0.298-0.579 0.216-0.894-0.057-0.204-0.090-0.438-0.090-0.68 0-0.619 0.215-1.187 0.574-1.635l-0.004 0.005c0.517-0.653 1.311-1.069 2.201-1.069 0.031 0 0.063 0.001 0.094 0.002l-0.005-0c0.011 0 0.025 0.001 0.038 0.001 0.362 0 0.685-0.164 0.899-0.422l0.002-0.002c0.526-0.645 1.321-1.054 2.212-1.054s1.686 0.409 2.208 1.049l0.004 0.005c0.228 0.283 0.576 0.441 0.939 0.424 0.026-0.001 0.056-0.001 0.086-0.001 0.891 0 1.685 0.415 2.2 1.063l0.004 0.006c0.355 0.443 0.57 1.012 0.57 1.63 0 0.242-0.033 0.476-0.094 0.698l0.004-0.018c-0.018 0.071-0.029 0.152-0.029 0.235 0 0.248 0.093 0.474 0.245 0.646l-0.001-0.001c0.57 0.634 0.795 1.505 0.604 2.336-0.199 0.863-0.792 1.556-1.574 1.889l-0.018 0.007c-0.314 0.131-0.548 0.4-0.628 0.729l-0.001 0.007c-0.183 0.83-0.729 1.504-1.459 1.859l-0.016 0.007c-0.367 0.185-0.8 0.293-1.258 0.293s-0.891-0.108-1.275-0.301l0.016 0.007c-0.155-0.076-0.337-0.121-0.529-0.121s-0.375 0.045-0.536 0.124l0.007-0.003c-0.367 0.185-0.8 0.293-1.259 0.293s-0.892-0.108-1.275-0.301l0.016 0.007c-0.745-0.363-1.29-1.036-1.471-1.848l-0.003-0.018c-0.081-0.336-0.315-0.605-0.622-0.733l-0.007-0.003zM23.11 25.009c0.454 0.010 0.817 0.38 0.817 0.835l-0.001 3.624 0.95-0.734c0.139-0.108 0.316-0.173 0.508-0.173s0.369 0.065 0.509 0.174l-0.002-0.001 0.95 0.734v-3.578c0-0.459 0.372-0.832 0.832-0.832s0.832 0.372 0.832 0.832v0 5.276c0 0.317-0.178 0.605-0.46 0.747-0.282 0.141-0.619 0.111-0.871-0.079l-1.782-1.375-1.781 1.375c-0.253 0.19-0.589 0.22-0.872 0.079-0.275-0.14-0.461-0.422-0.461-0.747 0-0 0-0 0-0v0-5.322c0-0.46 0.374-0.835 0.833-0.835zM8.698 6.392c0-0.001 0-0.001 0-0.002 0-0.46 0.373-0.832 0.832-0.832 0 0 0 0 0 0h11.831c0.461 0 0.834 0.373 0.834 0.834s-0.373 0.834-0.834 0.834v0h-11.831c-0.461 0-0.832-0.374-0.832-0.834zM19.030 10.6c0 0 0 0 0 0.001 0 0.46-0.372 0.833-0.832 0.834h-8.656c-0.461 0-0.832-0.374-0.832-0.835 0-0.001 0-0.001 0-0.002 0-0.46 0.373-0.832 0.832-0.832 0 0 0 0 0 0h8.655c0.221 0 0.432 0.087 0.588 0.243s0.244 0.369 0.244 0.591zM16.397 14.812c-0.001 0.46-0.372 0.832-0.832 0.835h-6.035c-0.461 0-0.833-0.374-0.833-0.835 0-0.001 0-0.001 0-0.002 0-0.46 0.373-0.832 0.832-0.832 0 0 0 0 0 0h6.035c0.221 0 0.432 0.087 0.588 0.243s0.244 0.369 0.244 0.591zM15.757 19.020c0 0.461-0.371 0.835-0.832 0.835h-5.376c-0.46 0-0.832-0.374-0.832-0.835 0-0.001 0-0.001 0-0.002 0-0.459 0.373-0.832 0.832-0.832 0 0 0 0 0 0h5.376c0.461 0 0.832 0.372 0.832 0.834z"></path>
</symbol>
<symbol id="icon-icon-5" viewBox="0 0 35 32">
<title>icon-5</title>
<path d="M13.26 19.044c0 2.309 1.893 4.206 4.197 4.206 0.005 0 0.011 0 0.017 0 0.632 0 1.145-0.512 1.145-1.145 0-0.001 0-0.002 0-0.003v0c0-0.308-0.123-0.603-0.341-0.817-0.206-0.204-0.49-0.331-0.804-0.331-0.006 0-0.011 0-0.017 0h0.001c-1.067 0-1.908-0.842-1.908-1.911 0-0.003 0-0.007 0-0.011 0-0.634-0.514-1.148-1.148-1.148-0.007 0-0.014 0-0.021 0h0.001c-0.016-0.001-0.035-0.001-0.054-0.001s-0.038 0-0.057 0.001l0.003-0c-0.573 0.068-1.014 0.551-1.014 1.137 0 0.008 0 0.015 0 0.023l-0-0.001zM17.457 12.542c3.596 0 6.485 2.897 6.485 6.501s-2.89 6.5-6.485 6.5c-3.596 0-6.485-2.896-6.485-6.5s2.889-6.501 6.485-6.501zM17.457 10.249c-4.833 0-8.774 3.95-8.774 8.795s3.941 8.795 8.774 8.795c4.833 0 8.774-3.951 8.774-8.795s-3.941-8.795-8.774-8.795zM23.942 2.601c0.022 0 0.18 0.031 0.286 0.107 0.079 0.059 0.112 0.127 0.119 0.132 0.004 0.007 0.007 0.017 0.012 0.024l0.859 3.561h-15.523l0.859-3.561c0.004-0.007 0.007-0.016 0.012-0.024 0.007-0.004 0.041-0.073 0.119-0.131 0.081-0.054 0.178-0.092 0.282-0.107l0.004-0zM10.971 0.306c-0.625 0-1.169 0.212-1.634 0.549-0.451 0.329-0.842 0.811-0.989 1.47 0 0.002-0.012-0.002-0.012 0l-0.012 0.048-0.978 4.051h-3.278c-2.083 0-3.779 1.733-3.779 3.824v17.59c0 2.092 1.696 3.824 3.779 3.824h22.925c0.005 0 0.011 0 0.017 0 0.632 0 1.145-0.512 1.145-1.145 0-0.001 0-0.002 0-0.003v0c0-0.001 0-0.001 0-0.002 0-0.632-0.512-1.145-1.145-1.145-0.006 0-0.012 0-0.017 0h-22.924c-0.841 0-1.49-0.656-1.49-1.53v-17.59c0-0.874 0.65-1.53 1.49-1.53h26.777c0.841 0 1.49 0.656 1.49 1.53v17.59c0 0.874-0.65 1.529-1.49 1.529-0.005-0-0.010-0-0.016-0-0.314 0-0.598 0.126-0.804 0.331l0-0c-0.219 0.215-0.341 0.509-0.341 0.817s0.123 0.602 0.341 0.818c0.218 0.215 0.513 0.334 0.82 0.33 2.083 0 3.779-1.732 3.779-3.824v-17.589c0-2.091-1.696-3.824-3.779-3.824h-3.278l-0.978-4.052c-0.003-0.016-0.007-0.031-0.012-0.048h-0.012c-0.148-0.658-0.538-1.141-0.989-1.469-0.465-0.338-1.009-0.549-1.634-0.549z"></path>
</symbol>
<symbol id="icon-icon-3" viewBox="0 0 24 32">
<title>icon-3</title>
<path d="M18.373 14.575c0-2.61-2.147-4.755-4.759-4.755h-3.423c-2.612 0-4.759 2.145-4.759 4.755l-0.002 8.294h3.25l-0.001-3.944c0-0.002 0-0.004 0-0.006 0-0.861 0.698-1.559 1.559-1.559 0.002 0 0.005 0 0.007 0h-0c0.002 0 0.005-0 0.008-0 0.861 0 1.559 0.698 1.559 1.559 0 0.002 0 0.004 0 0.006v-0 3.945h1.104v-1.22c0-0.002 0-0.004 0-0.006 0-0.861 0.698-1.559 1.559-1.559 0.002 0 0.005 0 0.007 0h-0c0.002 0 0.005-0 0.008-0 0.861 0 1.559 0.698 1.559 1.559 0 0.002 0 0.004 0 0.006v-0 1.219h2.324zM2.294 14.575c0-4.35 3.541-7.888 7.894-7.888h3.423c4.353 0 7.895 3.539 7.895 7.888v8.293h0.406c0.002 0 0.005-0 0.007-0 0.861 0 1.559 0.698 1.559 1.559 0 0.002 0 0.004 0 0.006v-0c0.059 0.87-0.637 1.566-1.508 1.566h-5.922v0.918c0 0.002 0 0.005 0 0.007 0 0.861-0.698 1.558-1.558 1.558-0.003 0-0.006 0-0.009-0h0c-0.002 0-0.005 0-0.007 0-0.861 0-1.559-0.698-1.559-1.559 0-0.002 0-0.004 0-0.006v0-0.918h-1.104v4.282c0 0.003 0 0.006 0 0.009 0 0.859-0.697 1.556-1.556 1.556-0.003 0-0.006 0-0.009-0h0c-0.002 0-0.005 0-0.007 0-0.861 0-1.559-0.698-1.559-1.559 0-0.002 0-0.004 0-0.006v0l-0.001-4.282h-6.792c-0.002 0-0.005 0-0.008 0-0.861 0-1.559-0.698-1.559-1.559 0-0.002 0-0.004 0-0.006v0c0-0.002 0-0.004 0-0.006 0-0.861 0.698-1.559 1.559-1.559 0.003 0 0.005 0 0.008 0h0.407zM11.93 5.005c-0.002 0-0.005 0-0.008 0-0.861 0-1.559-0.698-1.559-1.559 0-0.002 0-0.004 0-0.006v0-1.74c0-0.002 0-0.004 0-0.006 0-0.861 0.698-1.559 1.559-1.559 0.003 0 0.005 0 0.008 0h-0c0.002 0 0.005-0 0.008-0 0.861 0 1.559 0.698 1.559 1.559 0 0.002 0 0.004 0 0.006v-0 1.74c0 0.002 0 0.004 0 0.006 0 0.861-0.698 1.559-1.559 1.559-0.003 0-0.005 0-0.008-0h0zM21.041 8.776c-0.406 0-0.812-0.175-1.102-0.465-0.639-0.639-0.639-1.624 0-2.204l1.22-1.22c0.639-0.639 1.626-0.639 2.206 0 0.64 0.639 0.64 1.624 0 2.204l-1.22 1.219c-0.29 0.349-0.698 0.464-1.104 0.464zM2.818 8.776c-0.406 0-0.812-0.175-1.102-0.465l-1.22-1.219c-0.64-0.639-0.64-1.624 0-2.204 0.639-0.639 1.625-0.639 2.206 0l1.22 1.219c0.64 0.638 0.64 1.624 0 2.204-0.292 0.349-0.698 0.464-1.104 0.464z"></path>
</symbol>
<symbol id="icon-icon-4" viewBox="0 0 37 32">
<title>icon-4</title>
<path d="M34.059 27.648c0.699 0 1.248 0.549 1.248 1.248 0 0.004 0 0.008 0 0.012 0 0.683-0.553 1.236-1.236 1.236-0.004 0-0.008-0-0.013-0h0.001c-0.004 0-0.008 0-0.012 0-0.683 0-1.236-0.553-1.236-1.236 0-0.004 0-0.008 0-0.013v0.001c0-0.699 0.549-1.248 1.248-1.248zM3.275 27.648c0.699 0 1.248 0.549 1.248 1.248 0 0.004 0 0.008 0 0.012 0 0.683-0.553 1.236-1.236 1.236-0.004 0-0.008-0-0.013-0h0.001c-0.004 0-0.008 0-0.012 0-0.683 0-1.236-0.553-1.236-1.236 0-0.004 0-0.008 0-0.013v0.001c0-0.699 0.549-1.248 1.248-1.248zM25.739 16.767v7.709l-6.24 3.77v-8.008zM11.595 16.767l6.24 3.471v8.009l-6.24-3.77zM18.667 1.856c0.699 0 1.248 0.549 1.248 1.248 0 0.004 0 0.008 0 0.012 0 0.683-0.553 1.236-1.236 1.236-0.004 0-0.008-0-0.013-0h0.001c-0.004 0-0.008 0-0.012 0-0.683 0-1.236-0.553-1.236-1.236 0-0.004 0-0.008 0-0.013v0.001c0-0.699 0.549-1.248 1.248-1.248zM18.667 0.192c-1.599 0-2.912 1.313-2.912 2.912 0 1.308 0.885 2.42 2.080 2.782v5.018l-7.449 3.731c-0.28 0.141-0.455 0.427-0.455 0.741v9.282l-4.42 2.379c-0.538-0.643-1.339-1.050-2.235-1.053h-0.001c-1.599 0-2.912 1.313-2.912 2.913s1.313 2.912 2.912 2.912c1.599 0 2.912-1.313 2.912-2.912 0-0.113 0-0.227-0.013-0.338l4.745-2.548 7.319 4.433c0.263 0.159 0.595 0.159 0.858 0l7.319-4.433 4.745 2.548c-0.013 0.111-0.013 0.224-0.013 0.338 0 1.599 1.313 2.912 2.912 2.912s2.912-1.313 2.912-2.912c0-1.599-1.313-2.912-2.912-2.912-0.892 0-1.7 0.413-2.236 1.053l-4.42-2.38v-9.281c0-0.313-0.175-0.6-0.455-0.741l-4.98-2.496c-0.106-0.052-0.231-0.083-0.363-0.083-0.462 0-0.837 0.375-0.837 0.837 0 0.32 0.179 0.597 0.442 0.738l0.004 0.002 3.549 1.768-6.097 3.393-6.097-3.393 6.473-3.237c0.28-0.141 0.455-0.427 0.455-0.741v-5.538c1.194-0.362 2.080-1.473 2.080-2.782 0-1.599-1.313-2.912-2.912-2.912z"></path>
</symbol>
<symbol id="icon-icon-2" viewBox="0 0 32 32">
<title>icon-2</title>
<path d="M0.238 28.074v-24.752c-0.001-0.816 0.32-1.599 0.897-2.178 0.556-0.559 1.325-0.905 2.174-0.907h20.404c0.37 0 0.67 0.3 0.671 0.671v0.671c0 0.37-0.3 0.671-0.671 0.671s-0.671-0.3-0.671-0.671v0h-17.265v24.007h9.162c0 0 0 0 0.001 0 0.37 0 0.671 0.3 0.671 0.671 0 0.002 0 0.005-0 0.007v-0c0 0.371-0.3 0.671-0.671 0.671h-9.646c-0.056 0.017-0.121 0.027-0.187 0.027s-0.131-0.010-0.192-0.028l0.005 0.001h-1.61c-0.809 0.009-1.484 0.574-1.661 1.33l-0.002 0.012c-0.041 0.13-0.065 0.28-0.067 0.435v0.001c0.018 0.944 0.784 1.704 1.729 1.711h19.734v-1.341h-16.097c-0.371 0-0.671-0.3-0.671-0.671s0.3-0.671 0.671-0.671h16.097v-0.671c0-0.37 0.3-0.671 0.671-0.671s0.671 0.3 0.671 0.671v4.024c-0 0.37-0.3 0.671-0.671 0.671h-20.404c-0.85-0.002-1.619-0.349-2.175-0.907l-0-0c-0.577-0.579-0.899-1.362-0.897-2.178 0-0.136 0.010-0.27 0.030-0.404-0.019-0.059-0.030-0.128-0.030-0.198 0-0 0-0 0-0.001v0zM3.31 1.578c-0.957 0.008-1.73 0.785-1.731 1.744v22.807c0.48-0.34 1.077-0.543 1.722-0.543 0.003 0 0.006 0 0.010 0h1.126v-24.008zM19.69 23.714h2.683v-2.294c-0-0.007-0-0.016-0-0.025 0-0.306 0.205-0.565 0.486-0.645l0.005-0.001c0.547-0.154 1.024-0.355 1.468-0.607l-0.032 0.017c0.094-0.054 0.207-0.086 0.328-0.086 0.187 0 0.355 0.076 0.477 0.199l0 0 1.623 1.617 1.891-1.892-1.616-1.603c-0.123-0.122-0.2-0.291-0.2-0.477 0-0.12 0.032-0.233 0.087-0.331l-0.002 0.003c0.235-0.412 0.436-0.889 0.579-1.39l0.011-0.046c0.082-0.285 0.34-0.49 0.646-0.49 0.009 0 0.017 0 0.026 0.001l-0.001-0h2.274v-2.683h-2.294c-0.007 0-0.015 0-0.024 0-0.306 0-0.565-0.205-0.645-0.486l-0.001-0.005c-0.154-0.547-0.355-1.024-0.607-1.468l0.017 0.032c-0.054-0.094-0.086-0.208-0.086-0.328 0-0.187 0.076-0.356 0.199-0.477l0-0 1.616-1.623-1.891-1.891-1.603 1.616c-0.122 0.123-0.291 0.2-0.477 0.2-0.12 0-0.233-0.032-0.331-0.087l0.003 0.002c-0.412-0.235-0.889-0.436-1.39-0.579l-0.046-0.011c-0.285-0.082-0.49-0.34-0.49-0.646 0-0.009 0-0.017 0-0.026l-0 0.001v-2.274h-2.683v2.294c0 0.007 0 0.016 0 0.024 0 0.306-0.205 0.565-0.486 0.645l-0.005 0.001c-0.547 0.154-1.024 0.355-1.468 0.607l0.032-0.017c-0.094 0.054-0.207 0.086-0.328 0.086-0.187 0-0.355-0.076-0.477-0.199l-0-0-1.623-1.617-1.891 1.892 1.616 1.623c0.214 0.211 0.261 0.541 0.114 0.805-0.235 0.412-0.436 0.889-0.579 1.39l-0.011 0.046c-0.082 0.285-0.34 0.49-0.646 0.49-0.009 0-0.018-0-0.027-0.001l0.001 0h-2.273v2.683h2.294c0.007-0 0.015-0 0.024-0 0.306 0 0.565 0.205 0.645 0.486l0.001 0.005c0.14 0.5 0.337 0.982 0.59 1.435 0.054 0.094 0.086 0.207 0.086 0.328 0 0.187-0.076 0.355-0.199 0.477l-0 0-1.616 1.623 1.891 1.892 1.623-1.616c0.122-0.123 0.291-0.2 0.477-0.2 0.12 0 0.233 0.032 0.331 0.087l-0.003-0.002c0.412 0.235 0.888 0.436 1.389 0.579l0.046 0.011c0.298 0.084 0.501 0.361 0.49 0.671zM19.020 25.055c-0 0-0 0-0.001 0-0.37 0-0.671-0.3-0.671-0.671v0-2.476c-0.334-0.12-0.593-0.229-0.846-0.348l0.062 0.026-1.75 1.751c-0.121 0.121-0.288 0.195-0.473 0.195s-0.352-0.075-0.473-0.195l-2.85-2.851c-0.121-0.121-0.195-0.289-0.195-0.473s0.075-0.352 0.195-0.473l1.75-1.75c-0.093-0.192-0.201-0.451-0.299-0.716l-0.023-0.070h-2.475c-0.37 0-0.671-0.3-0.671-0.671v0-4.024c0-0.37 0.3-0.671 0.671-0.671h2.475c0.094-0.268 0.208-0.53 0.322-0.785l-1.75-1.75c-0.121-0.121-0.195-0.289-0.195-0.473s0.075-0.352 0.195-0.473l2.851-2.85c0.121-0.121 0.288-0.195 0.473-0.195s0.352 0.075 0.473 0.195l1.75 1.75c0.255-0.114 0.517-0.227 0.785-0.321v-2.474c0-0.371 0.3-0.671 0.671-0.671h4.024c0.371 0 0.671 0.301 0.671 0.671v0 2.475c0.268 0.094 0.53 0.208 0.784 0.322l1.75-1.75c0.121-0.121 0.289-0.195 0.473-0.195s0.352 0.075 0.473 0.195l2.85 2.851c0.12 0.121 0.195 0.288 0.195 0.473s-0.074 0.352-0.195 0.473l-1.75 1.75c0.114 0.255 0.228 0.517 0.322 0.785h2.475c0.37 0 0.67 0.3 0.671 0.671v4.025c0 0.371-0.3 0.671-0.671 0.671h-2.475c-0.094 0.268-0.208 0.53-0.322 0.784l1.75 1.751c0.12 0.121 0.195 0.288 0.195 0.473s-0.074 0.352-0.195 0.473l-2.851 2.851c-0.121 0.12-0.288 0.195-0.473 0.195s-0.352-0.074-0.473-0.195l-1.75-1.75c-0.191 0.092-0.45 0.201-0.715 0.299l-0.070 0.023v2.476c-0.001 0.37-0.301 0.67-0.671 0.671h-0zM21.032 10.969c-0 0-0 0-0 0-1.852 0-3.354 1.501-3.354 3.354s1.501 3.353 3.353 3.354h0c1.852 0 3.353-1.501 3.353-3.353s-1.501-3.353-3.353-3.353v0zM21.032 19.018c-1.944-0-3.613-1.182-4.326-2.867l-0.012-0.031c-0.226-0.531-0.357-1.148-0.357-1.796 0-2.594 2.103-4.697 4.697-4.697 0.648 0 1.266 0.131 1.827 0.369l-0.031-0.012c1.715 0.726 2.896 2.394 2.896 4.339 0 1.296-0.525 2.47-1.374 3.32l0-0c-0.85 0.85-2.023 1.375-3.32 1.375-0 0-0 0-0.001 0h0z"></path>
</symbol>
<symbol id="icon-icon-1" viewBox="0 0 38 32">
<title>icon-1</title>
<path d="M36.626 3.923c0.518 0.001 0.938 0.421 0.939 0.939v24.042c0 0.249-0.098 0.488-0.274 0.664-0.17 0.17-0.405 0.275-0.664 0.275-0 0-0.001 0-0.001 0h-14.037c-0.624 0.995-2.164 1.746-3.821 1.746s-3.197-0.758-3.821-1.746h-14.008c-0.519 0-0.939-0.42-0.939-0.939v-24.042c0-0.518 0.422-0.939 0.939-0.939s0.939 0.421 0.939 0.939v23.121h13.716c0.060-0.006 0.122-0.006 0.183 0h0.061c0.038 0.009 0.077 0.021 0.113 0.034l0.049 0.051 0.094 0.053 0.060 0.045 0.106 0.028 0.053 0.056c0.022 0.024 0.042 0.049 0.063 0.075 0.015 0.022 0.042 0.045 0.042 0.067 0.016 0.028 0.032 0.057 0.045 0.086 0.029 0.026 0.029 0.053 0.029 0.079 0.012 0.031 0.022 0.062 0.031 0.094v0.154c0.135 0.229 0.951 0.864 2.254 0.864s2.131-0.635 2.254-0.864v-0.154c0.010-0.039 0.020-0.070 0.032-0.101l-0.002 0.007h0.001c0.010-0.026 0.029-0.053 0.029-0.079 0.014-0.029 0.028-0.058 0.046-0.086 0.014-0.022 0.041-0.046 0.041-0.067 0.019-0.026 0.041-0.051 0.063-0.075h-0.001l0.053-0.056 0.079-0.065 0.061-0.045 0.094-0.053 0.064-0.034c0.030-0.011 0.068-0.023 0.107-0.032l0.007-0.001h0.060c0.062-0.006 0.124-0.006 0.185 0h13.741v-23.103c0-0.518 0.422-0.939 0.939-0.939zM5.452 24.517c1.766-0.873 3.845-1.383 6.044-1.383 0.053 0 0.105 0 0.158 0.001l-0.008-0c2.143-0.040 4.263 0.422 6.194 1.348v-20.481c-0.983-0.529-3.492-1.72-6.194-1.72-2.179 0.028-4.316 0.612-6.205 1.699zM32.111 4.002c-0.984-0.529-3.494-1.72-6.191-1.72-2.176 0.028-4.31 0.61-6.198 1.695v20.538c1.765-0.871 3.842-1.38 6.039-1.38 0.056 0 0.112 0 0.168 0.001l-0.009-0c0.074-0.001 0.161-0.002 0.248-0.002 2.161 0 4.205 0.499 6.025 1.387l-0.081-0.036zM4.113 27.026c-0.312-0.157-0.522-0.474-0.522-0.841 0-0.001 0-0.003 0-0.004v0-22.734c0.006-0.3 0.154-0.579 0.399-0.751 2.169-1.416 4.821-2.265 7.67-2.284l0.005-0-0.002-0.001c3.164 0 5.988 1.341 7.116 1.958 2.047-1.206 4.505-1.929 7.13-1.956l0.008-0h0.001c4.014 0 7.489 2.16 7.636 2.254 0.273 0.17 0.438 0.47 0.438 0.793v22.727c0.002 0.368-0.214 0.703-0.55 0.855-0.114 0.053-0.248 0.084-0.389 0.084-0.238 0-0.456-0.089-0.621-0.235l0.001 0.001c-0.041-0.034-2.239-1.878-6.513-1.878-4.197 0-6.513 1.878-6.552 1.885-0.108 0.064-0.178 0.107-0.247 0.152l0.033-0.020h-0.030c-0.057 0.023-0.123 0.042-0.193 0.055l-0.006 0.001h-0.301c-0.077-0.013-0.153-0.035-0.225-0.067h-0.045c-0.074-0.036-0.138-0.079-0.196-0.128l0.001 0.001c-0.042-0.034-2.24-1.878-6.514-1.878-4.132 0-6.509 1.878-6.536 1.878-0.278 0.233-0.666 0.285-0.996 0.135z"></path>
</symbol>
</defs>
</svg>
