<svg xmlns="http://www.w3.org/2000/svg" width="25.5" height="25" viewBox="0 0 51 50"><defs><clipPath id="xnnba"><path fill="#fff" d="M45.21-.003C48.4 0 50.985 2.592 50.987 5.79v3.045c0 .713-.569 1.291-1.28 1.303h-4.161a1.303 1.303 0 010-2.607h2.84V5.79a3.186 3.186 0 00-3.151-3.186 3.188 3.188 0 00-3.18 3.186v7.07a1.3 1.3 0 11-2.601 0V5.796c0-1.13.33-2.233.951-3.175l-28.576.067a2.989 2.989 0 00-2.975 2.988v30.992h22.087a1.303 1.303 0 010 2.607H2.613v1.941a2.982 2.982 0 002.975 2.986H30.94a1.303 1.303 0 010 2.608H5.588C2.51 46.805.014 44.302.012 41.216v-3.245c0-.718.584-1.303 1.3-1.303h4.942V5.676c0-3.08 2.48-5.581 5.551-5.602L45.21-.003zM32.007 27.482a1.485 1.485 0 00-.35 1.36c.125.516.488.94.978 1.137a4.26 4.26 0 012.497 3.008c.112.491.445.903.9 1.117a1.872 1.872 0 001.654 0 4.504 4.504 0 013.928 0 1.872 1.872 0 001.654 0c.455-.212.788-.626.9-1.117a4.26 4.26 0 012.497-3.008c.49-.197.853-.621.977-1.136a1.493 1.493 0 00-.353-1.337 4.125 4.125 0 01-.9-3.79 1.49 1.49 0 00-.28-1.324 1.788 1.788 0 00-1.478-.678 4.466 4.466 0 01-3.564-1.642 1.854 1.854 0 00-2.845 0 4.471 4.471 0 01-3.563 1.648 1.78 1.78 0 00-1.471.672 1.49 1.49 0 00-.277 1.297 4.13 4.13 0 01-.9 3.793zm-.402 4.87a4.222 4.222 0 01-2.481-2.941 4.1 4.1 0 01.943-3.65c.339-.379.465-.904.337-1.397a4.088 4.088 0 01.75-3.61 4.375 4.375 0 013.578-1.668 1.826 1.826 0 001.467-.662 4.449 4.449 0 016.912 0c.356.442.9.689 1.467.662a4.386 4.386 0 013.578 1.668 4.089 4.089 0 01.75 3.61 1.522 1.522 0 00.337 1.376c.89.99 1.242 2.351.943 3.65a4.213 4.213 0 01-2.487 2.962 1.653 1.653 0 00-.983 1.15 4.214 4.214 0 01-2.304 2.916 4.445 4.445 0 01-3.932 0 1.9 1.9 0 00-1.654 0 4.45 4.45 0 01-3.934 0 4.224 4.224 0 01-2.304-2.915 1.649 1.649 0 00-.983-1.15zm4.504 6.725c.71.015 1.276.593 1.276 1.304l-.002 5.662 1.484-1.147a1.3 1.3 0 011.586 0l1.484 1.147v-5.59a1.3 1.3 0 112.6 0v8.244c0 .495-.278.945-.719 1.167-.44.22-.967.173-1.361-.124l-2.784-2.149-2.783 2.149c-.395.297-.92.344-1.362.124a1.305 1.305 0 01-.72-1.167v-8.316c0-.719.584-1.304 1.301-1.304zM13.59 9.987a1.3 1.3 0 011.3-1.303h18.486a1.303 1.303 0 110 2.607H14.89a1.3 1.3 0 01-1.3-1.303zm16.145 6.575a1.303 1.303 0 01-1.3 1.304H14.91c-.72 0-1.3-.585-1.3-1.304a1.3 1.3 0 011.3-1.303h13.524c.346 0 .675.136.919.38.243.245.382.577.382.923zm-4.115 6.581a1.306 1.306 0 01-1.3 1.304h-9.43c-.72 0-1.301-.585-1.301-1.304a1.3 1.3 0 011.3-1.303h9.43c.346 0 .675.136.919.38.244.245.382.577.382.923zm-1 6.575a1.3 1.3 0 01-1.3 1.304h-8.4c-.719 0-1.3-.585-1.3-1.304a1.3 1.3 0 011.3-1.303h8.4c.72 0 1.3.582 1.3 1.303z"/></clipPath></defs><path fill="#363432" d="M45.21-.003C48.4 0 50.985 2.592 50.987 5.79v3.045c0 .713-.569 1.291-1.28 1.303h-4.161a1.303 1.303 0 010-2.607h2.84V5.79a3.186 3.186 0 00-3.151-3.186 3.188 3.188 0 00-3.18 3.186v7.07a1.3 1.3 0 11-2.601 0V5.796c0-1.13.33-2.233.951-3.175l-28.576.067a2.989 2.989 0 00-2.975 2.988v30.992h22.087a1.303 1.303 0 010 2.607H2.613v1.941a2.982 2.982 0 002.975 2.986H30.94a1.303 1.303 0 010 2.608H5.588C2.51 46.805.014 44.302.012 41.216v-3.245c0-.718.584-1.303 1.3-1.303h4.942V5.676c0-3.08 2.48-5.581 5.551-5.602L45.21-.003zM32.007 27.482a1.485 1.485 0 00-.35 1.36c.125.516.488.94.978 1.137a4.26 4.26 0 012.497 3.008c.112.491.445.903.9 1.117a1.872 1.872 0 001.654 0 4.504 4.504 0 013.928 0 1.872 1.872 0 001.654 0c.455-.212.788-.626.9-1.117a4.26 4.26 0 012.497-3.008c.49-.197.853-.621.977-1.136a1.493 1.493 0 00-.353-1.337 4.125 4.125 0 01-.9-3.79 1.49 1.49 0 00-.28-1.324 1.788 1.788 0 00-1.478-.678 4.466 4.466 0 01-3.564-1.642 1.854 1.854 0 00-2.845 0 4.471 4.471 0 01-3.563 1.648 1.78 1.78 0 00-1.471.672 1.49 1.49 0 00-.277 1.297 4.13 4.13 0 01-.9 3.793zm-.402 4.87a4.222 4.222 0 01-2.481-2.941 4.1 4.1 0 01.943-3.65c.339-.379.465-.904.337-1.397a4.088 4.088 0 01.75-3.61 4.375 4.375 0 013.578-1.668 1.826 1.826 0 001.467-.662 4.449 4.449 0 016.912 0c.356.442.9.689 1.467.662a4.386 4.386 0 013.578 1.668 4.089 4.089 0 01.75 3.61 1.522 1.522 0 00.337 1.376c.89.99 1.242 2.351.943 3.65a4.213 4.213 0 01-2.487 2.962 1.653 1.653 0 00-.983 1.15 4.214 4.214 0 01-2.304 2.916 4.445 4.445 0 01-3.932 0 1.9 1.9 0 00-1.654 0 4.45 4.45 0 01-3.934 0 4.224 4.224 0 01-2.304-2.915 1.649 1.649 0 00-.983-1.15zm4.504 6.725c.71.015 1.276.593 1.276 1.304l-.002 5.662 1.484-1.147a1.3 1.3 0 011.586 0l1.484 1.147v-5.59a1.3 1.3 0 112.6 0v8.244c0 .495-.278.945-.719 1.167-.44.22-.967.173-1.361-.124l-2.784-2.149-2.783 2.149c-.395.297-.92.344-1.362.124a1.305 1.305 0 01-.72-1.167v-8.316c0-.719.584-1.304 1.301-1.304zM13.59 9.987a1.3 1.3 0 011.3-1.303h18.486a1.303 1.303 0 110 2.607H14.89a1.3 1.3 0 01-1.3-1.303zm16.145 6.575a1.303 1.303 0 01-1.3 1.304H14.91c-.72 0-1.3-.585-1.3-1.304a1.3 1.3 0 011.3-1.303h13.524c.346 0 .675.136.919.38.243.245.382.577.382.923zm-4.115 6.581a1.306 1.306 0 01-1.3 1.304h-9.43c-.72 0-1.301-.585-1.301-1.304a1.3 1.3 0 011.3-1.303h9.43c.346 0 .675.136.919.38.244.245.382.577.382.923zm-1 6.575a1.3 1.3 0 01-1.3 1.304h-8.4c-.719 0-1.3-.585-1.3-1.304a1.3 1.3 0 011.3-1.303h8.4c.72 0 1.3.582 1.3 1.303z"/></svg>