<svg xmlns="http://www.w3.org/2000/svg" width="21" height="24.5" viewBox="0 0 42 49"><defs><clipPath id="v5uca"><path fill="#fff" d="M39.872 26.767c1.004 0 1.824.816 1.824 1.812v13.34c0 3.628-3.009 6.53-6.566 6.53H6.864c-3.649 0-6.566-2.993-6.566-6.53v-13.34a1.824 1.824 0 013.648 0V41.92c0 1.632 1.369 2.902 2.918 2.902H35.13c1.641 0 2.918-1.361 2.918-2.902V28.58c0-.998.82-1.814 1.824-1.814zm-29.452-3.9c-.728-.724-.728-1.814 0-2.539.73-.724 1.825-.724 2.553 0l6.291 6.257V2.36a1.824 1.824 0 013.649 0v24.224l6.204-6.348c.729-.724 1.824-.724 2.553 0 .728.725.728 1.815 0 2.54l-9.391 9.34c-.184.18-.365.27-.548.362-.184.09-.367.182-.64.182-.183 0-.456 0-.64-.091-.274-.091-.455-.18-.639-.362z"/></clipPath></defs><path fill="#9a9998" d="M39.872 26.767c1.004 0 1.824.816 1.824 1.812v13.34c0 3.628-3.009 6.53-6.566 6.53H6.864c-3.649 0-6.566-2.993-6.566-6.53v-13.34a1.824 1.824 0 013.648 0V41.92c0 1.632 1.369 2.902 2.918 2.902H35.13c1.641 0 2.918-1.361 2.918-2.902V28.58c0-.998.82-1.814 1.824-1.814zm-29.452-3.9c-.728-.724-.728-1.814 0-2.539.73-.724 1.825-.724 2.553 0l6.291 6.257V2.36a1.824 1.824 0 013.649 0v24.224l6.204-6.348c.729-.724 1.824-.724 2.553 0 .728.725.728 1.815 0 2.54l-9.391 9.34c-.184.18-.365.27-.548.362-.184.09-.367.182-.64.182-.183 0-.456 0-.64-.091-.274-.091-.455-.18-.639-.362z"/></svg>