<svg xmlns="http://www.w3.org/2000/svg" width="23.5" height="23.5" viewBox="0 0 47 47"><path fill="#363432" d="M.35 41.234V4.879A4.515 4.515 0 011.668 1.68 4.52 4.52 0 014.862.348H34.83a.986.986 0 01.985.985v.985a.985.985 0 11-1.97 0H8.487v35.26h13.457a.985.985 0 01.986.995c0 .545-.44.986-.985.986H7.777a.988.988 0 01-.55 0H4.862a2.534 2.534 0 00-2.443 1.97 2.26 2.26 0 00-.098.64 2.561 2.561 0 002.541 2.513h28.983v-1.97H10.202a.985.985 0 110-1.971h23.643v-.985a.985.985 0 111.97 0v5.91a.987.987 0 01-.985.986H4.862a4.52 4.52 0 01-3.194-1.333A4.52 4.52 0 01.35 42.12c0-.199.015-.397.044-.594a.986.986 0 01-.044-.292zM4.862 2.318A2.562 2.562 0 002.32 4.879v33.498a4.405 4.405 0 012.542-.798h1.655V2.318zM28.92 34.83h3.94v-3.37a.985.985 0 01.72-.985 9.6 9.6 0 002.108-.867.985.985 0 011.182.167l2.384 2.375 2.778-2.779-2.374-2.354a.985.985 0 01-.168-1.182 9.599 9.599 0 00.867-2.109.985.985 0 01.985-.719h3.34v-3.94h-3.37a.985.985 0 01-.984-.72 9.596 9.596 0 00-.867-2.108.985.985 0 01.167-1.183l2.374-2.384-2.778-2.778-2.354 2.374a.985.985 0 01-1.182.168 9.596 9.596 0 00-2.109-.867.985.985 0 01-.719-.985v-3.34h-3.94v3.37a.985.985 0 01-.72.984 9.595 9.595 0 00-2.108.867.985.985 0 01-1.182-.167l-2.384-2.375-2.778 2.779 2.374 2.384c.315.31.384.795.168 1.182a9.592 9.592 0 00-.867 2.109.985.985 0 01-.986.719h-3.339v3.94h3.37a.985.985 0 01.984.72c.205.734.495 1.443.867 2.108a.985.985 0 01-.167 1.182l-2.374 2.384 2.778 2.779 2.384-2.374a.985.985 0 011.182-.168 9.59 9.59 0 002.108.867c.438.123.736.53.72.985zm-.985 1.97a.985.985 0 01-.986-.985v-3.636a14.79 14.79 0 01-1.152-.473l-2.571 2.572a.985.985 0 01-1.39 0L17.65 30.09a.986.986 0 010-1.39l2.57-2.57a14.864 14.864 0 01-.472-1.154h-3.635a.985.985 0 01-.985-.985V18.08c0-.544.44-.985.985-.985h3.635c.138-.394.305-.779.473-1.153l-2.571-2.571a.986.986 0 010-1.39l4.187-4.186a.985.985 0 011.389 0l2.57 2.57c.375-.167.76-.334 1.153-.472V6.26c0-.545.441-.986.986-.986h5.91a.986.986 0 01.986.986v3.635c.394.138.778.305 1.152.473l2.571-2.571a.986.986 0 011.39 0l4.186 4.187a.986.986 0 010 1.389l-2.571 2.571c.168.375.335.759.473 1.153h3.635a.986.986 0 01.985.985v5.911a.986.986 0 01-.985.986h-3.635a14.63 14.63 0 01-.473 1.152l2.571 2.572a.986.986 0 010 1.389l-4.187 4.187a.986.986 0 01-1.389 0l-2.57-2.571a14.93 14.93 0 01-1.153.472v3.636a.987.987 0 01-.986.985zm2.955-20.69a4.925 4.925 0 10-.001 9.851 4.925 4.925 0 000-9.85zm0 11.823a6.899 6.899 0 01-6.371-4.256 6.898 6.898 0 019.012-9.012 6.9 6.9 0 012.236 11.248 6.895 6.895 0 01-4.877 2.02z"/></svg>