<svg xmlns="http://www.w3.org/2000/svg" width="27" height="23" viewBox="0 0 54 46"><defs><clipPath id="1ejla"><path fill="#fff" d="M52.65 5.64A1.353 1.353 0 0154 6.99v34.56c0 .358-.141.702-.394.955a1.351 1.351 0 01-.956.395H32.472c-.897 1.43-3.111 2.51-5.493 2.51-2.381 0-4.596-1.09-5.493-2.51H1.35A1.35 1.35 0 010 41.55V6.99a1.35 1.35 0 012.7 0v33.237h19.717c.086-.008.175-.008.263 0h.087c.055.013.11.03.162.049l.07.074.135.076.086.065.152.04.076.08c.032.034.061.07.09.108.022.031.06.065.06.097.023.04.046.082.065.124.042.038.042.076.042.114.017.045.032.089.045.135v.222c.194.329 1.367 1.242 3.24 1.242 1.873 0 3.063-.913 3.24-1.242v-.222a1.46 1.46 0 01.042-.135h.002c.015-.038.042-.076.042-.114.02-.042.04-.084.066-.124.02-.032.059-.066.059-.097a1.17 1.17 0 01.09-.108h-.002l.076-.08.114-.093.087-.065.135-.076.092-.049a1.45 1.45 0 01.163-.048h.086c.089-.009.178-.009.266 0H51.3V6.99c0-.745.606-1.35 1.35-1.35zM7.837 35.243a19.976 19.976 0 018.903-1.987c3.08-.057 6.128.607 8.904 1.938V5.752c-1.413-.76-5.02-2.473-8.904-2.473-3.132.04-6.204.88-8.92 2.443zm38.322-29.49c-1.415-.76-5.022-2.473-8.899-2.473-3.128.04-6.195.877-8.91 2.436v29.523a19.98 19.98 0 018.91-1.983 19.763 19.763 0 018.9 1.939zM5.913 38.85a1.349 1.349 0 01-.751-1.215V4.955c.008-.431.221-.832.573-1.08A20.631 20.631 0 0116.768.591L16.765.59c4.548 0 8.608 1.928 10.229 2.814A20.877 20.877 0 0137.254.592h.002c5.77 0 10.766 3.105 10.977 3.24.392.245.63.675.63 1.14v32.67a1.342 1.342 0 01-.79 1.229 1.35 1.35 0 01-1.45-.215c-.059-.049-3.219-2.7-9.363-2.7-6.033 0-9.363 2.7-9.418 2.71a12.06 12.06 0 00-.308.19h-.043a1.483 1.483 0 01-.286.08h-.433a1.32 1.32 0 01-.323-.097h-.065a1.29 1.29 0 01-.28-.183c-.06-.049-3.22-2.7-9.364-2.7-5.94 0-9.357 2.7-9.395 2.7-.4.335-.958.41-1.432.194z"/></clipPath></defs><path fill="#363432" d="M52.65 5.64A1.353 1.353 0 0154 6.99v34.56c0 .358-.141.702-.394.955a1.351 1.351 0 01-.956.395H32.472c-.897 1.43-3.111 2.51-5.493 2.51-2.381 0-4.596-1.09-5.493-2.51H1.35A1.35 1.35 0 010 41.55V6.99a1.35 1.35 0 012.7 0v33.237h19.717c.086-.008.175-.008.263 0h.087c.055.013.11.03.162.049l.07.074.135.076.086.065.152.04.076.08c.032.034.061.07.09.108.022.031.06.065.06.097.023.04.046.082.065.124.042.038.042.076.042.114.017.045.032.089.045.135v.222c.194.329 1.367 1.242 3.24 1.242 1.873 0 3.063-.913 3.24-1.242v-.222a1.46 1.46 0 01.042-.135h.002c.015-.038.042-.076.042-.114.02-.042.04-.084.066-.124.02-.032.059-.066.059-.097a1.17 1.17 0 01.09-.108h-.002l.076-.08.114-.093.087-.065.135-.076.092-.049a1.45 1.45 0 01.163-.048h.086c.089-.009.178-.009.266 0H51.3V6.99c0-.745.606-1.35 1.35-1.35zM7.837 35.243a19.976 19.976 0 018.903-1.987c3.08-.057 6.128.607 8.904 1.938V5.752c-1.413-.76-5.02-2.473-8.904-2.473-3.132.04-6.204.88-8.92 2.443zm38.322-29.49c-1.415-.76-5.022-2.473-8.899-2.473-3.128.04-6.195.877-8.91 2.436v29.523a19.98 19.98 0 018.91-1.983 19.763 19.763 0 018.9 1.939zM5.913 38.85a1.349 1.349 0 01-.751-1.215V4.955c.008-.431.221-.832.573-1.08A20.631 20.631 0 0116.768.591L16.765.59c4.548 0 8.608 1.928 10.229 2.814A20.877 20.877 0 0137.254.592h.002c5.77 0 10.766 3.105 10.977 3.24.392.245.63.675.63 1.14v32.67a1.342 1.342 0 01-.79 1.229 1.35 1.35 0 01-1.45-.215c-.059-.049-3.219-2.7-9.363-2.7-6.033 0-9.363 2.7-9.418 2.71a12.06 12.06 0 00-.308.19h-.043a1.483 1.483 0 01-.286.08h-.433a1.32 1.32 0 01-.323-.097h-.065a1.29 1.29 0 01-.28-.183c-.06-.049-3.22-2.7-9.364-2.7-5.94 0-9.357 2.7-9.395 2.7-.4.335-.958.41-1.432.194z"/></svg>