<svg xmlns="http://www.w3.org/2000/svg" width="998" height="133" viewBox="0 0 998 133.07" shape-rendering="geometricPrecision" text-rendering="geometricPrecision" image-rendering="optimizeQuality" fill-rule="evenodd" clip-rule="evenodd"><defs><style>.str0,.str1{stroke:#2b2a29;stroke-width:1.33;stroke-miterlimit:22.9256}.str1{stroke:#fdc707}.fil2{fill:none;fill-rule:nonzero}.fil3{fill:#fdc707}.fil1{fill:#2b2a29;fill-rule:nonzero}</style></defs><g id="Слой_x0020_1"><path fill="none" d="M0 0h998v133.07H0z"/><g id="_2027769330528"><path class="fil1 str0" d="M779.76 11.12h61.09c1.89 0 3.73.16 5.55.48 1.84.29 3.52.82 5.09 1.54 1.65.64 3.23 1.5 4.67 2.59 1.46 1.09 2.77 2.48 3.92 4.13 1.04 1.47 1.97 3.15 2.8 5.07.85 1.95 1.52 4.11 2.05 6.51.29 1.65.53 3.46.69 5.38.16 1.92.24 3.98.24 6.16v48.14c0 2.4-.1 4.63-.32 6.72a55.52 55.52 0 01-.93 5.94c-.43 2.19-1.04 4.24-1.87 6.16-.85 1.92-1.78 3.63-2.82 5.07-1.76 2.29-3.79 4.13-6.08 5.49-1.58.83-3.26 1.44-5.02 1.87-1.76.4-3.7.61-5.78.61h-65.63c-1.76 0-3.41-.18-4.91-.53-1.52-.37-2.96-.88-4.29-1.49-1.68-.83-3.2-1.87-4.53-3.12a23.84 23.84 0 01-3.6-4.22c-.83-1.36-1.6-2.8-2.27-4.29-.67-1.52-1.23-3.12-1.65-4.77-.4-1.58-.72-3.12-.94-4.7a33.83 33.83 0 01-.29-4.53V40.02c0-2.29.11-4.42.37-6.4.27-2 .62-3.81 1.02-5.46.53-1.9 1.17-3.6 1.97-5.18.77-1.54 1.63-2.9 2.56-4.05a20.07 20.07 0 013.44-3.28c1.25-.93 2.56-1.73 3.92-2.35a28.51 28.51 0 015.63-1.65c1.97-.35 3.94-.53 5.92-.53zm21.09 18.58c-1.04 0-1.95.19-2.72.56-.8.35-1.49.8-2.11 1.31a7.21 7.21 0 00-1.65 2.59c-.37.98-.53 1.94-.53 2.9v62.03c0 .72.18 1.41.61 2.11.43.66.88 1.28 1.41 1.78.62.54 1.31.96 2.03 1.34.72.37 1.47.56 2.19.56h20.93c.72 0 1.44-.22 2.11-.64.69-.4 1.28-.94 1.81-1.55.51-.53.93-1.15 1.23-1.89.32-.72.48-1.44.48-2.19V35.65c0-.72-.16-1.47-.48-2.19-.3-.72-.78-1.36-1.39-1.89-.53-.51-1.15-.96-1.89-1.31-.72-.37-1.39-.56-2.03-.56h-20z"/><path class="fil2 str0" d="M919.6 29.86v26.4h24.53c.83 0 1.46-.13 1.94-.37.48-.27.86-.67 1.18-1.17.32-.43.53-.94.61-1.58.11-.61.16-1.41.16-2.34V33.78c0-.74-.11-1.36-.29-1.89a3.07 3.07 0 00-.96-1.25c-.4-.3-.91-.51-1.47-.62-.58-.1-1.12-.16-1.65-.16H919.6z"/><path class="fil1 str0" d="M880.05 11.44h84.24c4.05 0 7.6.5 10.61 1.54 2.91 1.04 5.36 2.67 7.33 4.86.96 1.04 1.76 2.26 2.43 3.68.69 1.38 1.23 2.93 1.65 4.58.62 2.62.94 5.58.94 8.91V58c0 1.14-.03 2.26-.08 3.36-.06 1.09-.19 2.21-.4 3.36-.19 1.04-.54 2.07-1.01 3.12a10.91 10.91 0 01-1.79 2.79c-.54.65-1.18 1.21-1.95 1.74-.8.51-1.71.93-2.75 1.25-1.04.4-2.18.7-3.44.85-1.25.17-2.69.24-4.37.24l22.35 48.43h-43.44l-18.59-48.26h-12.5v48.26h-39.23V11.44zm39.55 18.42v26.4h24.53c.83 0 1.46-.13 1.94-.37.48-.27.86-.67 1.18-1.17.32-.43.53-.94.61-1.58.11-.61.16-1.41.16-2.34V33.78c0-.74-.11-1.36-.29-1.89a3.07 3.07 0 00-.96-1.25c-.4-.3-.91-.51-1.47-.62-.58-.1-1.12-.16-1.65-.16H919.6zM630.69 11.12h51.09l42.51 91.57V11.12h17.49v111.86h-51.09L647.57 29.7v93.28h-16.88zM421.07 122.6L383.42 10.41h41.57l30 88.43 31.23-88.43h18.77l-40 112.19z"/><path class="fil2 str0" d="M303.1 29.15v26.41h24.53c.83 0 1.47-.14 1.95-.38.48-.26.85-.66 1.17-1.17.32-.43.53-.93.62-1.57.1-.62.15-1.42.15-2.35V33.08c0-.75-.1-1.36-.29-1.9-.21-.5-.53-.93-.96-1.25-.4-.29-.91-.51-1.47-.61-.58-.11-1.12-.17-1.65-.17H303.1z"/><path class="fil1 str0" d="M263.55 10.73h84.24c4.05 0 7.6.51 10.62 1.55 2.9 1.03 5.35 2.66 7.33 4.85.96 1.04 1.76 2.27 2.42 3.68.7 1.39 1.23 2.93 1.66 4.59.61 2.61.93 5.57.93 8.9v22.99c0 1.15-.02 2.27-.08 3.36-.05 1.09-.19 2.21-.4 3.36a13.04 13.04 0 01-1.01 3.12c-.46 1.04-1.07 1.97-1.79 2.8-.53.64-1.17 1.2-1.95 1.73-.79.51-1.7.94-2.74 1.26-1.04.4-2.19.69-3.44.85-1.26.16-2.7.24-4.38.24l22.35 48.43h-43.44l-18.58-48.27h-12.51v48.27h-39.23V10.73zm39.55 18.42v26.41h24.53c.83 0 1.47-.14 1.95-.38.48-.26.85-.66 1.17-1.17.32-.43.53-.93.62-1.57.1-.62.15-1.42.15-2.35V33.08c0-.75-.1-1.36-.29-1.9-.21-.5-.53-.93-.96-1.25-.4-.29-.91-.51-1.47-.61-.58-.11-1.12-.17-1.65-.17H303.1z"/><path class="fil2 str0" d="M173.74 36.04l-15.63 38.13h30.78z"/><path class="fil1 str0" d="M206.22 10.86l42.5 111.74h-41.86l-11.57-29.68h-45.47l-13.6 29.68h-18.91l49.71-111.74h39.2zm-32.48 25.18l-15.63 38.13h30.78l-15.15-38.13z"/><path class="fil2 str0" d="M43.42 73.85v30.32h25.31c.64 0 1.17-.19 1.65-.56.45-.37.91-.8 1.31-1.33.42-.62.74-1.28.96-1.95.18-.67.29-1.33.29-1.95V78.06c0-.5-.16-1.04-.45-1.57-.32-.51-.7-.93-1.1-1.23-.53-.42-1.04-.77-1.57-1.04-.51-.24-1.04-.37-1.57-.37H43.42zm0-44.7v26.41h24.83c.53 0 1.09-.16 1.65-.46.56-.32 1.07-.69 1.49-1.09.4-.53.78-1.07 1.1-1.65.29-.56.45-1.12.45-1.63V33.37c0-.51-.16-1.04-.45-1.55-.32-.53-.7-.93-1.1-1.25-.53-.43-1.04-.77-1.57-1.01-.51-.27-1.04-.41-1.57-.41H43.42z"/><path class="fil1 str0" d="M88.25 10.73c1.57 0 3.12.08 4.61.21 1.52.16 2.91.46 4.16.88 1.65.4 3.17.96 4.53 1.63 1.34.69 2.54 1.49 3.58 2.43 1.14.93 2.1 1.94 2.9 3.04.78 1.09 1.42 2.21 1.95 3.36.61 1.25 1.07 2.53 1.33 3.84.27 1.3.38 2.56.38 3.81v20.48c0 1.47-.16 2.75-.54 3.89-.37 1.15-.85 2.19-1.49 3.15-.61.93-1.36 1.73-2.19 2.4-.82.69-1.76 1.28-2.8 1.81-.74.4-1.57.75-2.5 1.02-.94.26-1.87.48-2.8.69-1.58.32-3.12.53-4.62.64-1.52.1-2.9.16-4.16.16 1.58.19 3.1.45 4.54.77 1.46.32 2.88.67 4.24 1.1 2.18.5 4.05 1.25 5.6 2.18.85.32 1.6.72 2.26 1.26.7.5 1.28 1.04 1.82 1.54.93.96 1.62 2.03 2.1 3.2.46 1.2.7 2.48.7 3.84v25.31c0 1.89-.19 3.6-.54 5.17-.37 1.55-.9 2.96-1.65 4.22-.72 1.14-1.55 2.21-2.51 3.19-.93.99-1.97 1.85-3.12 2.59-1.04.62-2.1 1.18-3.2 1.63-1.09.48-2.26.85-3.52 1.17-1.44.43-2.93.7-4.45.86-1.49.16-2.93.24-4.29.24H4.19V10.73h84.06zM43.42 73.85v30.32h25.31c.64 0 1.17-.19 1.65-.56.45-.37.91-.8 1.31-1.33.42-.62.74-1.28.96-1.95.18-.67.29-1.33.29-1.95V78.06c0-.5-.16-1.04-.45-1.57-.32-.51-.7-.93-1.1-1.23-.53-.42-1.04-.77-1.57-1.04-.51-.24-1.04-.37-1.57-.37H43.42zm0-44.7v26.41h24.83c.53 0 1.09-.16 1.65-.46.56-.32 1.07-.69 1.49-1.09.4-.53.78-1.07 1.1-1.65.29-.56.45-1.12.45-1.63V33.37c0-.51-.16-1.04-.45-1.55-.32-.53-.7-.93-1.1-1.25-.53-.43-1.04-.77-1.57-1.01-.51-.27-1.04-.41-1.57-.41H43.42z"/><path class="fil3 str1" d="M487.13 1.87l-32.09 91.58-30.75-91.58z"/><g id="_1706983259808"><path class="fil1 str0" d="M578.09 10.48l37.44 112.25-41.57-.07-29.84-88.49-31.39 88.37-18.77-.03L534.17 10.4z"/><path class="fil3 str1" d="M511.81 131.09l32.26-91.53 30.57 91.64z"/></g></g></g></svg>