<svg xmlns="http://www.w3.org/2000/svg" width="118" height="118" viewBox="0 0 118 118"><defs><clipPath id="bdf4a"><path fill="#fff" d="M114.06 45.23a5.898 5.898 0 00-5.9-5.899H60.961c-3.26 0-5.9 2.64-5.9 5.9v62.931c0 3.26 2.64 5.9 5.9 5.9h47.199c3.26 0 5.9-2.64 5.9-5.9zM3.929 100.297c0 3.26 2.64 5.9 5.9 5.9h41.297V45.23c.005-5.428 4.406-9.828 9.834-9.833h21.633v-7.866H64.894c-3.26 0-5.9-2.64-5.9-5.9V3.932H9.83c-3.26 0-5.9 2.64-5.9 5.9v90.464zM62.927 6.714V21.63c0 1.086.88 1.966 1.967 1.966h14.917zm45.232 28.683c5.428.005 9.828 4.405 9.833 9.833v62.932c-.005 5.428-4.405 9.828-9.833 9.833H60.96a9.846 9.846 0 01-9.636-7.867H9.828c-5.427-.005-9.828-4.405-9.833-9.833V9.831C0 4.403 4.401.003 9.828-.002H60.96c.04 0 .079.02.108.02.177.01.354.044.521.098.06.025.119.04.177.064.212.098.408.231.576.393l23.599 23.6c.167.167.3.364.393.575.025.064.045.123.064.187.06.162.094.334.104.506.004.044.024.079.024.123v9.833zm-1.966 15.699c0-3.26-.64-3.9-3.9-3.9H66.827c-3.26 0-3.9.64-3.9 3.9v11.866c0 3.26.64 3.9 3.9 3.9h35.466c3.26 0 3.9-.64 3.9-3.9zm3.933 0v11.867c-.005 5.428-2.405 7.828-7.833 7.833H66.827c-5.428-.005-7.828-2.405-7.833-7.833V51.097c.005-5.428 2.405-7.829 7.833-7.833h35.466c5.428.004 7.828 2.405 7.833 7.833zM66.861 86.53a3.937 3.937 0 002.783-1.15 3.936 3.936 0 00-1.278-6.417 3.94 3.94 0 00-4.287.851 3.94 3.94 0 00-.851 4.287 3.931 3.931 0 003.633 2.429zm0-11.8c2.085 0 4.086.831 5.561 2.306a7.863 7.863 0 01-2.552 12.827 7.853 7.853 0 01-8.57-1.706 7.853 7.853 0 01-1.705-8.57 7.863 7.863 0 017.266-4.857zm17.7 11.8a3.936 3.936 0 002.782-1.15 3.936 3.936 0 00-1.278-6.417 3.94 3.94 0 00-4.287.851 3.94 3.94 0 00-.851 4.287 3.931 3.931 0 003.633 2.429zm0-11.8a7.869 7.869 0 017.866 7.866 7.863 7.863 0 01-4.858 7.268A7.853 7.853 0 0179 88.156a7.854 7.854 0 01-1.705-8.57 7.863 7.863 0 017.266-4.857zm-17.7 31.466a3.937 3.937 0 002.783-1.15 3.937 3.937 0 00-1.278-6.416 3.94 3.94 0 00-4.287.85 3.94 3.94 0 00-.851 4.287 3.932 3.932 0 003.633 2.43zm0-11.8c2.085 0 4.086.831 5.561 2.306a7.863 7.863 0 01-2.552 12.827 7.853 7.853 0 01-8.57-1.705 7.853 7.853 0 01-1.705-8.57 7.863 7.863 0 017.266-4.858zm17.7 11.8a3.936 3.936 0 002.782-1.15 3.937 3.937 0 00-1.278-6.416 3.94 3.94 0 00-4.287.85 3.94 3.94 0 00-.851 4.287 3.931 3.931 0 003.633 2.43zm0-11.8a7.869 7.869 0 017.866 7.866 7.863 7.863 0 01-4.858 7.268 7.854 7.854 0 01-8.57-1.706 7.854 7.854 0 01-1.705-8.57 7.863 7.863 0 017.266-4.858zm21.632-11.8a3.932 3.932 0 00-3.933-3.932 3.932 3.932 0 00-3.933 3.933v19.666a3.932 3.932 0 003.933 3.933 3.932 3.932 0 003.933-3.933zm1.628-5.56a7.868 7.868 0 012.306 5.56v19.667a7.864 7.864 0 01-7.867 7.866 7.864 7.864 0 01-7.866-7.866V82.596a7.864 7.864 0 0113.427-5.56zm-96.025-63.27c0-1.087.88-1.967 1.966-1.967h11.8a1.966 1.966 0 110 3.933h-11.8a1.966 1.966 0 01-1.966-1.967zm0 7.866c0-1.087.88-1.967 1.966-1.967h23.6a1.966 1.966 0 110 3.933h-23.6a1.966 1.966 0 01-1.966-1.966zm34.79 20.242a1.97 1.97 0 010 2.783l-5.866 7.866a1.97 1.97 0 01-1.392.575H28.345l-7.292 7.291c-.368.38-.87.595-1.396.6a1.965 1.965 0 01-1.986-1.986 1.975 1.975 0 01.6-1.396l7.866-7.867a1.97 1.97 0 011.392-.575h10.983l5.291-7.291a1.97 1.97 0 012.783 0zm-3.359 23.023a1.966 1.966 0 110 3.934H13.762a1.969 1.969 0 01-1.392-.576 1.97 1.97 0 01-.575-1.391V35.397a1.966 1.966 0 113.933 0v29.5h27.5z"/></clipPath></defs><path fill="#e2e2e2" d="M114.06 45.23a5.898 5.898 0 00-5.9-5.899H60.961c-3.26 0-5.9 2.64-5.9 5.9v62.931c0 3.26 2.64 5.9 5.9 5.9h47.199c3.26 0 5.9-2.64 5.9-5.9zM3.929 100.297c0 3.26 2.64 5.9 5.9 5.9h41.297V45.23c.005-5.428 4.406-9.828 9.834-9.833h21.633v-7.866H64.894c-3.26 0-5.9-2.64-5.9-5.9V3.932H9.83c-3.26 0-5.9 2.64-5.9 5.9v90.464zM62.927 6.714V21.63c0 1.086.88 1.966 1.967 1.966h14.917zm45.232 28.683c5.428.005 9.828 4.405 9.833 9.833v62.932c-.005 5.428-4.405 9.828-9.833 9.833H60.96a9.846 9.846 0 01-9.636-7.867H9.828c-5.427-.005-9.828-4.405-9.833-9.833V9.831C0 4.403 4.401.003 9.828-.002H60.96c.04 0 .079.02.108.02.177.01.354.044.521.098.06.025.119.04.177.064.212.098.408.231.576.393l23.599 23.6c.167.167.3.364.393.575.025.064.045.123.064.187.06.162.094.334.104.506.004.044.024.079.024.123v9.833zm-1.966 15.699c0-3.26-.64-3.9-3.9-3.9H66.827c-3.26 0-3.9.64-3.9 3.9v11.866c0 3.26.64 3.9 3.9 3.9h35.466c3.26 0 3.9-.64 3.9-3.9zm3.933 0v11.867c-.005 5.428-2.405 7.828-7.833 7.833H66.827c-5.428-.005-7.828-2.405-7.833-7.833V51.097c.005-5.428 2.405-7.829 7.833-7.833h35.466c5.428.004 7.828 2.405 7.833 7.833zM66.861 86.53a3.937 3.937 0 002.783-1.15 3.936 3.936 0 00-1.278-6.417 3.94 3.94 0 00-4.287.851 3.94 3.94 0 00-.851 4.287 3.931 3.931 0 003.633 2.429zm0-11.8c2.085 0 4.086.831 5.561 2.306a7.863 7.863 0 01-2.552 12.827 7.853 7.853 0 01-8.57-1.706 7.853 7.853 0 01-1.705-8.57 7.863 7.863 0 017.266-4.857zm17.7 11.8a3.936 3.936 0 002.782-1.15 3.936 3.936 0 00-1.278-6.417 3.94 3.94 0 00-4.287.851 3.94 3.94 0 00-.851 4.287 3.931 3.931 0 003.633 2.429zm0-11.8a7.869 7.869 0 017.866 7.866 7.863 7.863 0 01-4.858 7.268A7.853 7.853 0 0179 88.156a7.854 7.854 0 01-1.705-8.57 7.863 7.863 0 017.266-4.857zm-17.7 31.466a3.937 3.937 0 002.783-1.15 3.937 3.937 0 00-1.278-6.416 3.94 3.94 0 00-4.287.85 3.94 3.94 0 00-.851 4.287 3.932 3.932 0 003.633 2.43zm0-11.8c2.085 0 4.086.831 5.561 2.306a7.863 7.863 0 01-2.552 12.827 7.853 7.853 0 01-8.57-1.705 7.853 7.853 0 01-1.705-8.57 7.863 7.863 0 017.266-4.858zm17.7 11.8a3.936 3.936 0 002.782-1.15 3.937 3.937 0 00-1.278-6.416 3.94 3.94 0 00-4.287.85 3.94 3.94 0 00-.851 4.287 3.931 3.931 0 003.633 2.43zm0-11.8a7.869 7.869 0 017.866 7.866 7.863 7.863 0 01-4.858 7.268 7.854 7.854 0 01-8.57-1.706 7.854 7.854 0 01-1.705-8.57 7.863 7.863 0 017.266-4.858zm21.632-11.8a3.932 3.932 0 00-3.933-3.932 3.932 3.932 0 00-3.933 3.933v19.666a3.932 3.932 0 003.933 3.933 3.932 3.932 0 003.933-3.933zm1.628-5.56a7.868 7.868 0 012.306 5.56v19.667a7.864 7.864 0 01-7.867 7.866 7.864 7.864 0 01-7.866-7.866V82.596a7.864 7.864 0 0113.427-5.56zm-96.025-63.27c0-1.087.88-1.967 1.966-1.967h11.8a1.966 1.966 0 110 3.933h-11.8a1.966 1.966 0 01-1.966-1.967zm0 7.866c0-1.087.88-1.967 1.966-1.967h23.6a1.966 1.966 0 110 3.933h-23.6a1.966 1.966 0 01-1.966-1.966zm34.79 20.242a1.97 1.97 0 010 2.783l-5.866 7.866a1.97 1.97 0 01-1.392.575H28.345l-7.292 7.291c-.368.38-.87.595-1.396.6a1.965 1.965 0 01-1.986-1.986 1.975 1.975 0 01.6-1.396l7.866-7.867a1.97 1.97 0 011.392-.575h10.983l5.291-7.291a1.97 1.97 0 012.783 0zm-3.359 23.023a1.966 1.966 0 110 3.934H13.762a1.969 1.969 0 01-1.392-.576 1.97 1.97 0 01-.575-1.391V35.397a1.966 1.966 0 113.933 0v29.5h27.5z"/><path fill="none" stroke="#fff" stroke-miterlimit="50" stroke-width=".8" d="M114.06 45.23a5.898 5.898 0 00-5.9-5.899H60.961c-3.26 0-5.9 2.64-5.9 5.9v62.931c0 3.26 2.64 5.9 5.9 5.9h47.199c3.26 0 5.9-2.64 5.9-5.9zM3.929 100.297c0 3.26 2.64 5.9 5.9 5.9h41.297V45.23c.005-5.428 4.406-9.828 9.834-9.833h21.633v-7.866H64.894c-3.26 0-5.9-2.64-5.9-5.9V3.932H9.83c-3.26 0-5.9 2.64-5.9 5.9v90.464zM62.927 6.714V21.63c0 1.086.88 1.966 1.967 1.966h14.917zm45.232 28.683c5.428.005 9.828 4.405 9.833 9.833v62.932c-.005 5.428-4.405 9.828-9.833 9.833H60.96a9.846 9.846 0 01-9.636-7.867H9.828c-5.427-.005-9.828-4.405-9.833-9.833V9.831C0 4.403 4.401.003 9.828-.002H60.96c.04 0 .079.02.108.02.177.01.354.044.521.098.06.025.119.04.177.064.212.098.408.231.576.393l23.599 23.6c.167.167.3.364.393.575.025.064.045.123.064.187.06.162.094.334.104.506.004.044.024.079.024.123v9.833zm-1.966 15.699c0-3.26-.64-3.9-3.9-3.9H66.827c-3.26 0-3.9.64-3.9 3.9v11.866c0 3.26.64 3.9 3.9 3.9h35.466c3.26 0 3.9-.64 3.9-3.9zm3.933 0v11.867c-.005 5.428-2.405 7.828-7.833 7.833H66.827c-5.428-.005-7.828-2.405-7.833-7.833V51.097c.005-5.428 2.405-7.829 7.833-7.833h35.466c5.428.004 7.828 2.405 7.833 7.833zM66.861 86.53a3.937 3.937 0 002.783-1.15 3.936 3.936 0 00-1.278-6.417 3.94 3.94 0 00-4.287.851 3.94 3.94 0 00-.851 4.287 3.931 3.931 0 003.633 2.429zm0-11.8c2.085 0 4.086.831 5.561 2.306a7.863 7.863 0 01-2.552 12.827 7.853 7.853 0 01-8.57-1.706 7.853 7.853 0 01-1.705-8.57 7.863 7.863 0 017.266-4.857zm17.7 11.8a3.936 3.936 0 002.782-1.15 3.936 3.936 0 00-1.278-6.417 3.94 3.94 0 00-4.287.851 3.94 3.94 0 00-.851 4.287 3.931 3.931 0 003.633 2.429zm0-11.8a7.869 7.869 0 017.866 7.866 7.863 7.863 0 01-4.858 7.268A7.853 7.853 0 0179 88.156a7.854 7.854 0 01-1.705-8.57 7.863 7.863 0 017.266-4.857zm-17.7 31.466a3.937 3.937 0 002.783-1.15 3.937 3.937 0 00-1.278-6.416 3.94 3.94 0 00-4.287.85 3.94 3.94 0 00-.851 4.287 3.932 3.932 0 003.633 2.43zm0-11.8c2.085 0 4.086.831 5.561 2.306a7.863 7.863 0 01-2.552 12.827 7.853 7.853 0 01-8.57-1.705 7.853 7.853 0 01-1.705-8.57 7.863 7.863 0 017.266-4.858zm17.7 11.8a3.936 3.936 0 002.782-1.15 3.937 3.937 0 00-1.278-6.416 3.94 3.94 0 00-4.287.85 3.94 3.94 0 00-.851 4.287 3.931 3.931 0 003.633 2.43zm0-11.8a7.869 7.869 0 017.866 7.866 7.863 7.863 0 01-4.858 7.268 7.854 7.854 0 01-8.57-1.706 7.854 7.854 0 01-1.705-8.57 7.863 7.863 0 017.266-4.858zm21.632-11.8a3.932 3.932 0 00-3.933-3.932 3.932 3.932 0 00-3.933 3.933v19.666a3.932 3.932 0 003.933 3.933 3.932 3.932 0 003.933-3.933zm1.628-5.56a7.868 7.868 0 012.306 5.56v19.667a7.864 7.864 0 01-7.867 7.866 7.864 7.864 0 01-7.866-7.866V82.596a7.864 7.864 0 0113.427-5.56zm-96.025-63.27c0-1.087.88-1.967 1.966-1.967h11.8a1.966 1.966 0 110 3.933h-11.8a1.966 1.966 0 01-1.966-1.967zm0 7.866c0-1.087.88-1.967 1.966-1.967h23.6a1.966 1.966 0 110 3.933h-23.6a1.966 1.966 0 01-1.966-1.966zm34.79 20.242a1.97 1.97 0 010 2.783l-5.866 7.866a1.97 1.97 0 01-1.392.575H28.345l-7.292 7.291c-.368.38-.87.595-1.396.6a1.965 1.965 0 01-1.986-1.986 1.975 1.975 0 01.6-1.396l7.866-7.867a1.97 1.97 0 011.392-.575h10.983l5.291-7.291a1.97 1.97 0 012.783 0zm-3.359 23.023a1.966 1.966 0 110 3.934H13.762a1.969 1.969 0 01-1.392-.576 1.97 1.97 0 01-.575-1.391V35.397a1.966 1.966 0 113.933 0v29.5h27.5z" clip-path="url(&quot;#bdf4a&quot;)"/></svg>