<svg xmlns="http://www.w3.org/2000/svg"><defs><symbol id="icon-prev" viewBox="0 0 22 32"><path d="M.009 16.631L.661 16l-.652-.631L15.864-.014l5.946 5.769-10.56 10.246 10.56 10.244-5.946 5.769z"/></symbol><symbol id="icon-next2" viewBox="0 0 21 32"><path d="M5.884 31.279L.216 25.78l10.067-9.767L.216 6.247 5.884.748l15.115 14.663-.621.602.621.603z"/></symbol><symbol id="icon-icon-7" viewBox="0 0 27 32"><path d="M26.039 17.48a1.19 1.19 0 011.191 1.183v8.712c0 2.369-1.965 4.264-4.288 4.264H4.483c-2.383 0-4.288-1.955-4.288-4.264v-8.712a1.19 1.19 0 112.382 0v8.712c0 1.066.894 1.895 1.906 1.895h18.459a1.914 1.914 0 001.906-1.895v-8.712a1.19 1.19 0 011.191-1.185zM6.805 14.934a1.143 1.143 0 010-1.658 1.157 1.157 0 011.667 0l4.108 4.086V1.542a1.192 1.192 0 112.382 0v15.82l4.052-4.146c.476-.473 1.191-.473 1.667 0s.475 1.185 0 1.659l-6.133 6.1c-.12.118-.238.176-.358.236-.12.059-.24.119-.418.119-.12 0-.298 0-.418-.059a.966.966 0 01-.417-.236z"/></symbol><symbol id="icon-icon-6" viewBox="0 0 33 32"><path d="M28.934-.002a3.705 3.705 0 013.697 3.708v1.949a.833.833 0 01-.819.834h-2.663a.833.833 0 110-1.668h1.818V3.707a2.04 2.04 0 00-2.015-2.039h-.001a2.04 2.04 0 00-2.035 2.039v4.525a.832.832 0 01-1.664 0V3.711c0-.723.211-1.429.609-2.032l-18.289.043a1.913 1.913 0 00-1.904 1.912v19.835h14.136a.833.833 0 110 1.668H1.674v1.245c0 1.052.852 1.906 1.904 1.908h16.226a.835.835 0 010 1.67H3.579A3.58 3.58 0 01.01 26.38v-2.077c0-.46.374-.834.832-.834h3.163V3.634A3.58 3.58 0 017.558.049L28.937 0zm-8.45 17.59a.945.945 0 00-.222.877l-.001-.007c.08.33.312.602.626.728a2.74 2.74 0 011.595 1.907l.003.018c.072.314.285.578.576.715a1.205 1.205 0 001.065-.003l-.007.003a2.88 2.88 0 012.514 0 1.205 1.205 0 001.065-.003l-.007.003c.291-.136.504-.401.576-.715a2.738 2.738 0 011.58-1.918l.018-.007c.314-.126.546-.397.625-.727a.956.956 0 00-.226-.857l.001.001a2.63 2.63 0 01-.572-2.444l-.004.018a.954.954 0 00-.179-.847 1.143 1.143 0 00-.898-.435l-.05.001h.002l-.066.001a2.853 2.853 0 01-2.211-1.047l-.004-.005a1.185 1.185 0 00-1.819-.002l-.002.002a2.859 2.859 0 01-2.219 1.055l-.064-.001h.003l-.049-.001c-.361 0-.682.167-.891.429l-.002.002a.95.95 0 00-.177.83 2.633 2.633 0 01-.578 2.43l.002-.003zm-.257 3.117a2.712 2.712 0 01-1.584-1.864l-.004-.018a2.61 2.61 0 01.606-2.338l-.002.002a.974.974 0 00.216-.894 2.605 2.605 0 01.484-2.315l-.004.005a2.8 2.8 0 012.295-1.067h-.005l.038.001c.362 0 .685-.164.899-.422l.002-.002a2.845 2.845 0 014.42-.005l.004.005c.228.283.576.441.939.424l.086-.001c.891 0 1.685.415 2.2 1.063l.004.006c.355.443.57 1.012.57 1.63 0 .242-.033.476-.094.698l.004-.018a.97.97 0 00.216.881l-.001-.001c.57.634.795 1.505.604 2.336a2.707 2.707 0 01-1.574 1.889l-.018.007c-.314.131-.548.4-.628.729l-.001.007a2.708 2.708 0 01-1.459 1.859l-.016.007c-.367.185-.8.293-1.258.293s-.891-.108-1.275-.301l.016.007a1.207 1.207 0 00-1.065.003l.007-.003c-.367.185-.8.293-1.259.293s-.892-.108-1.275-.301l.016.007a2.715 2.715 0 01-1.471-1.848l-.003-.018a1.061 1.061 0 00-.622-.733l-.007-.003zm2.883 4.304c.454.01.817.38.817.835l-.001 3.624.95-.734a.827.827 0 011.017.001l-.002-.001.95.734V25.89a.832.832 0 011.664 0v5.276a.83.83 0 01-1.331.668l-1.782-1.375-1.781 1.375a.831.831 0 01-1.333-.668v-5.322c0-.46.374-.835.833-.835zM8.698 6.392V6.39c0-.46.373-.832.832-.832h11.831a.833.833 0 110 1.668H9.53a.832.832 0 01-.832-.834zM19.03 10.6v.001c0 .46-.372.833-.832.834H9.542a.833.833 0 01-.832-.835v-.002c0-.46.373-.832.832-.832h8.655a.83.83 0 01.832.834zm-2.633 4.212a.837.837 0 01-.832.835H9.53a.833.833 0 01-.833-.835v-.002c0-.46.373-.832.832-.832h6.035a.83.83 0 01.832.834zm-.64 4.208a.833.833 0 01-.832.835H9.549a.833.833 0 01-.832-.835v-.002c0-.459.373-.832.832-.832h5.376c.461 0 .832.372.832.834z"/></symbol><symbol id="icon-icon-5" viewBox="0 0 35 32"><path d="M13.26 19.044c0 2.309 1.893 4.206 4.197 4.206h.017c.632 0 1.145-.512 1.145-1.145v-.003a1.145 1.145 0 00-1.145-1.148h-.017.001a1.893 1.893 0 01-1.908-1.911v-.011c0-.634-.514-1.148-1.148-1.148h-.021.001l-.054-.001-.057.001h.003a1.146 1.146 0 00-1.014 1.137v.023-.001zm4.197-6.502c3.596 0 6.485 2.897 6.485 6.501s-2.89 6.5-6.485 6.5c-3.596 0-6.485-2.896-6.485-6.5s2.889-6.501 6.485-6.501zm0-2.293c-4.833 0-8.774 3.95-8.774 8.795s3.941 8.795 8.774 8.795c4.833 0 8.774-3.951 8.774-8.795s-3.941-8.795-8.774-8.795zm6.485-7.648c.022 0 .18.031.286.107.079.059.112.127.119.132.004.007.007.017.012.024l.859 3.561H9.695l.859-3.561.012-.024c.007-.004.041-.073.119-.131a.688.688 0 01.282-.107h.004zM10.971.306c-.625 0-1.169.212-1.634.549-.451.329-.842.811-.989 1.47 0 .002-.012-.002-.012 0l-.012.048-.978 4.051H4.068c-2.083 0-3.779 1.733-3.779 3.824v17.59c0 2.092 1.696 3.824 3.779 3.824H27.01c.632 0 1.145-.512 1.145-1.145v-.005c0-.632-.512-1.145-1.145-1.145H4.069c-.841 0-1.49-.656-1.49-1.53v-17.59c0-.874.65-1.53 1.49-1.53h26.777c.841 0 1.49.656 1.49 1.53v17.59c0 .874-.65 1.529-1.49 1.529h-.016c-.314 0-.598.126-.804.331a1.15 1.15 0 000 1.635c.218.215.513.334.82.33 2.083 0 3.779-1.732 3.779-3.824V10.249c0-2.091-1.696-3.824-3.779-3.824h-3.278l-.978-4.052a.48.48 0 00-.012-.048h-.012a2.477 2.477 0 00-.989-1.469 2.736 2.736 0 00-1.634-.549z"/></symbol><symbol id="icon-icon-3" viewBox="0 0 24 32"><path d="M18.373 14.575c0-2.61-2.147-4.755-4.759-4.755h-3.423c-2.612 0-4.759 2.145-4.759 4.755l-.002 8.294h3.25l-.001-3.944v-.006c0-.861.698-1.559 1.559-1.559h.015c.861 0 1.559.698 1.559 1.559v3.951h1.104v-1.226c0-.861.698-1.559 1.559-1.559h.015c.861 0 1.559.698 1.559 1.559v1.225h2.324zm-16.079 0c0-4.35 3.541-7.888 7.894-7.888h3.423c4.353 0 7.895 3.539 7.895 7.888v8.293h.413c.861 0 1.559.698 1.559 1.559v.006c.059.87-.637 1.566-1.508 1.566h-5.922v.925c0 .861-.698 1.558-1.558 1.558h-.016a1.559 1.559 0 01-1.559-1.559v-.924h-1.104v4.291c0 .859-.697 1.556-1.556 1.556h-.016a1.559 1.559 0 01-1.559-1.559v-.006l-.001-4.282h-6.8A1.559 1.559 0 01.32 24.44v-.012c0-.861.698-1.559 1.559-1.559h.415zm9.636-9.57h-.008a1.559 1.559 0 01-1.559-1.559V1.694c0-.861.698-1.559 1.559-1.559h.016c.861 0 1.559.698 1.559 1.559v1.752c0 .861-.698 1.559-1.559 1.559h-.008zm9.111 3.771c-.406 0-.812-.175-1.102-.465-.639-.639-.639-1.624 0-2.204l1.22-1.22c.639-.639 1.626-.639 2.206 0 .64.639.64 1.624 0 2.204l-1.22 1.219c-.29.349-.698.464-1.104.464zm-18.223 0c-.406 0-.812-.175-1.102-.465L.496 7.092c-.64-.639-.64-1.624 0-2.204.639-.639 1.625-.639 2.206 0l1.22 1.219c.64.638.64 1.624 0 2.204-.292.349-.698.464-1.104.464z"/></symbol><symbol id="icon-icon-4" viewBox="0 0 37 32"><path d="M34.059 27.648c.699 0 1.248.549 1.248 1.248v.012c0 .683-.553 1.236-1.236 1.236h-.013.001-.012a1.236 1.236 0 01-1.236-1.236v-.013.001c0-.699.549-1.248 1.248-1.248zm-30.784 0c.699 0 1.248.549 1.248 1.248v.012c0 .683-.553 1.236-1.236 1.236h-.013.001-.012a1.236 1.236 0 01-1.236-1.236v-.013.001c0-.699.549-1.248 1.248-1.248zm22.464-10.881v7.709l-6.24 3.77v-8.008zm-14.144 0l6.24 3.471v8.009l-6.24-3.77zm7.072-14.911c.699 0 1.248.549 1.248 1.248v.012c0 .683-.553 1.236-1.236 1.236h-.013.001-.012a1.236 1.236 0 01-1.236-1.236v-.013.001c0-.699.549-1.248 1.248-1.248zm0-1.664a2.924 2.924 0 00-2.912 2.912c0 1.308.885 2.42 2.08 2.782v5.018l-7.449 3.731a.827.827 0 00-.455.741v9.282l-4.42 2.379a2.918 2.918 0 00-2.235-1.053h-.001c-1.599 0-2.912 1.313-2.912 2.913s1.313 2.912 2.912 2.912a2.924 2.924 0 002.912-2.912c0-.113 0-.227-.013-.338l4.745-2.548 7.319 4.433a.831.831 0 00.858 0l7.319-4.433 4.745 2.548c-.013.111-.013.224-.013.338 0 1.599 1.313 2.912 2.912 2.912s2.912-1.313 2.912-2.912a2.924 2.924 0 00-2.912-2.912c-.892 0-1.7.413-2.236 1.053l-4.42-2.38v-9.281c0-.313-.175-.6-.455-.741l-4.98-2.496a.837.837 0 00-.758 1.492l.004.002 3.549 1.768-6.097 3.393-6.097-3.393 6.473-3.237a.827.827 0 00.455-.741V5.886c1.194-.362 2.08-1.473 2.08-2.782A2.924 2.924 0 0018.665.192z"/></symbol><symbol id="icon-icon-2" viewBox="0 0 32 32"><path d="M.238 28.074V3.322A3.078 3.078 0 013.309.237h20.404c.37 0 .67.3.671.671v.671a.671.671 0 01-1.342 0H5.777v24.007h9.163c.37 0 .671.3.671.671v.007a.67.67 0 01-.671.671H5.294a.655.655 0 01-.379-.001l.005.001H3.31a1.726 1.726 0 00-1.661 1.33l-.002.012c-.041.13-.065.28-.067.435v.001a1.744 1.744 0 001.729 1.711h19.734v-1.341H6.946a.67.67 0 110-1.342h16.097v-.671a.671.671 0 011.342 0v4.024c0 .37-.3.671-.671.671H3.31a3.072 3.072 0 01-2.175-.907 3.073 3.073 0 01-.867-2.582.657.657 0 01-.03-.198v-.001zM3.31 1.578a1.745 1.745 0 00-1.731 1.744v22.807a2.975 2.975 0 011.722-.543h1.136V1.578zm16.38 22.136h2.683v-2.319a.67.67 0 01.486-.645l.005-.001a6.494 6.494 0 001.468-.607l-.032.017a.668.668 0 01.805.113l1.623 1.617 1.891-1.892-1.616-1.603a.671.671 0 01-.113-.808l-.002.003c.235-.412.436-.889.579-1.39l.011-.046a.673.673 0 01.672-.489h-.001 2.274v-2.683h-2.318a.67.67 0 01-.645-.486l-.001-.005a6.494 6.494 0 00-.607-1.468l.017.032a.667.667 0 01.113-.805l1.616-1.623-1.891-1.891-1.603 1.616a.671.671 0 01-.808.113l.003.002a6.362 6.362 0 00-1.39-.579l-.046-.011a.673.673 0 01-.49-.646v-.026.001-2.274H19.69v2.318a.67.67 0 01-.486.645l-.005.001a6.494 6.494 0 00-1.468.607l.032-.017a.668.668 0 01-.805-.113l-1.623-1.617-1.891 1.892 1.616 1.623a.672.672 0 01.114.805 6.362 6.362 0 00-.579 1.39l-.011.046a.673.673 0 01-.646.49L13.911 13h.001-2.273v2.683h2.318a.67.67 0 01.645.486l.001.005c.14.5.337.982.59 1.435a.668.668 0 01-.113.805l-1.616 1.623 1.891 1.892 1.623-1.616a.671.671 0 01.808-.113l-.003-.002c.412.235.888.436 1.389.579l.046.011a.673.673 0 01.49.671zm-.67 1.341h-.001c-.37 0-.671-.3-.671-.671v-2.476a9.303 9.303 0 01-.846-.348l.062.026-1.75 1.751a.67.67 0 01-.946 0l-2.85-2.851a.667.667 0 010-.946l1.75-1.75a8.5 8.5 0 01-.299-.716l-.023-.07h-2.475c-.37 0-.671-.3-.671-.671v-4.024c0-.37.3-.671.671-.671h2.475c.094-.268.208-.53.322-.785l-1.75-1.75a.667.667 0 010-.946l2.851-2.85a.67.67 0 01.946 0l1.75 1.75c.255-.114.517-.227.785-.321V4.262c0-.371.3-.671.671-.671h4.024c.371 0 .671.301.671.671v2.475c.268.094.53.208.784.322l1.75-1.75a.667.667 0 01.946 0l2.85 2.851a.67.67 0 010 .946l-1.75 1.75c.114.255.228.517.322.785h2.475c.37 0 .67.3.671.671v4.025a.67.67 0 01-.671.671h-2.475c-.094.268-.208.53-.322.784l1.75 1.751a.67.67 0 010 .946l-2.851 2.851a.67.67 0 01-.946 0l-1.75-1.75c-.191.092-.45.201-.715.299l-.07.023v2.476a.673.673 0 01-.671.671zm2.012-14.086a3.354 3.354 0 00-.001 6.708 3.353 3.353 0 100-6.706zm0 8.049a4.697 4.697 0 01-4.326-2.867l-.012-.031a4.697 4.697 0 016.167-6.124l-.031-.012c1.715.726 2.896 2.394 2.896 4.339 0 1.296-.525 2.47-1.374 3.32a4.679 4.679 0 01-3.32 1.375h-.001z"/></symbol><symbol id="icon-icon-1" viewBox="0 0 38 32"><path d="M36.626 3.923a.941.941 0 01.939.939v24.042a.938.938 0 01-.938.939H22.589c-.624.995-2.164 1.746-3.821 1.746s-3.197-.758-3.821-1.746H.939A.938.938 0 010 28.904V4.862c0-.518.422-.939.939-.939s.939.421.939.939v23.121h13.716a.932.932 0 01.183 0h.061c.038.009.077.021.113.034l.049.051.094.053.06.045.106.028.053.056c.022.024.042.049.063.075.015.022.042.045.042.067.016.028.032.057.045.086.029.026.029.053.029.079.012.031.022.062.031.094v.154c.135.229.951.864 2.254.864s2.131-.635 2.254-.864v-.154c.01-.039.02-.07.032-.101l-.002.007h.001c.01-.026.029-.053.029-.079.014-.029.028-.058.046-.086.014-.022.041-.046.041-.067a.893.893 0 01.063-.075h-.001l.053-.056.079-.065.061-.045.094-.053.064-.034a.923.923 0 01.107-.032l.007-.001h.06a.953.953 0 01.185 0h13.741V4.861a.94.94 0 01.939-.939zM5.452 24.517c1.766-.873 3.845-1.383 6.044-1.383l.158.001h-.008c2.143-.04 4.263.422 6.194 1.348V4.002c-.983-.529-3.492-1.72-6.194-1.72a12.77 12.77 0 00-6.205 1.699zM32.111 4.002c-.984-.529-3.494-1.72-6.191-1.72-2.176.028-4.31.61-6.198 1.695v20.538c1.765-.871 3.842-1.38 6.039-1.38l.168.001h-.009l.248-.002c2.161 0 4.205.499 6.025 1.387l-.081-.036zM4.113 27.026a.94.94 0 01-.522-.841V3.447a.94.94 0 01.399-.751A14.206 14.206 0 0111.66.412h.005l-.002-.001c3.164 0 5.988 1.341 7.116 1.958C20.826 1.163 23.284.44 25.909.413h.009c4.014 0 7.489 2.16 7.636 2.254.273.17.438.47.438.793v22.727a.934.934 0 01-.939.939.935.935 0 01-.621-.235l.001.001c-.041-.034-2.239-1.878-6.513-1.878-4.197 0-6.513 1.878-6.552 1.885a6.503 6.503 0 00-.247.152l.033-.02h-.03a1.02 1.02 0 01-.193.055l-.006.001h-.301a.94.94 0 01-.225-.067h-.045a.934.934 0 01-.196-.128l.001.001c-.042-.034-2.24-1.878-6.514-1.878-4.132 0-6.509 1.878-6.536 1.878a.944.944 0 01-.996.135z"/></symbol></defs></svg>